<svg xmlns="http://www.w3.org/2000/svg"
 xmlns:xlink="http://www.w3.org/1999/xlink"
 width="18px" height="14px"  viewBox="0 0 18 14">
<path fill-rule="evenodd"  fill="#8dc63f"
 d="M16.26648,2.7010498 C16.26648,2.7010498 14.98291,1.4174805 14.98291,1.4174805 C14.806641,1.2414551 14.592651,1.1535645 14.3411255,1.1535645 C14.089355,1.1535645 13.875336,1.2414551 13.699219,1.4174805 C13.699219,1.4174805 7.507721,7.6187744 7.507721,7.6187744 C7.507721,7.6187744 4.7328796,4.8341064 4.7328796,4.8341064 C4.5566406,4.657837 4.342743,4.5701904 4.091217,4.5701904 C3.839447,4.5701904 3.6254272,4.657837 3.4493103,4.8341064 C3.4493103,4.8341064 2.165741,6.11792 2.165741,6.11792 C1.989502,6.2939453 1.9013672,6.5078125 1.9013672,6.7596436 C1.9013672,7.0113525 1.989502,7.2250977 2.165741,7.4016113 C2.165741,7.4016113 5.5822754,10.817993 5.5822754,10.817993 C5.5822754,10.817993 6.8659363,12.101807 6.8659363,12.101807 C7.042053,12.277832 7.255951,12.365967 7.507721,12.365967 C7.7592773,12.365967 7.9732666,12.277588 8.149506,12.101807 C8.149506,12.101807 9.433197,10.817993 9.433197,10.817993 C9.433197,10.817993 16.26648,3.9847412 16.26648,3.9847412 C16.442474,3.8084717 16.5307,3.5948486 16.5307,3.3430176 C16.5307,3.0915527 16.442474,2.8775635 16.26648,2.7010498 Z"/>
</svg>