<svg xmlns="http://www.w3.org/2000/svg"
 xmlns:xlink="http://www.w3.org/1999/xlink"
 width="12px" height="18px"  viewBox="0 0 12 18">
<path fill-rule="evenodd"  fill="#ffffff"
 d="M9.706787,9.754272 C9.706787,9.754272 3.2960205,16.200623 3.2960205,16.200623 C2.8883057,16.611145 2.227295,16.611145 1.8197021,16.200623 C1.4119873,15.791199 1.4119873,15.12616 1.8197021,14.71637 C1.8197021,14.71637 7.4920654,9.011963 7.4920654,9.011963 C7.4920654,9.011963 1.8199463,3.3079224 1.8199463,3.3079224 C1.4122314,2.897766 1.4122314,2.232727 1.8199463,1.822937 C2.227417,1.4127808 2.8885498,1.4127808 3.2962646,1.822937 C3.2962646,1.822937 9.707031,8.269653 9.707031,8.269653 C9.910889,8.474915 10.012573,8.743042 10.012573,9.011963 C10.012573,9.280884 9.9104,9.549377 9.706787,9.754272 Z"/>
</svg>