<svg xmlns="http://www.w3.org/2000/svg"
 xmlns:xlink="http://www.w3.org/1999/xlink"
 width="12px" height="18px"  viewBox="0 0 12 18">
<path fill-rule="evenodd"  fill="#ffffff"
 d="M1.9996567,9.011963 C1.9996567,8.743042 2.1016235,8.474915 2.305214,8.269653 C2.305214,8.269653 8.715965,1.822937 8.715965,1.822937 C9.123947,1.4127808 9.784958,1.4127808 10.192596,1.822937 C10.600235,2.232727 10.600235,2.897766 10.192596,3.3079224 C10.192596,3.3079224 4.5201035,9.011963 4.5201035,9.011963 C4.5201035,9.011963 10.192368,14.71637 10.192368,14.71637 C10.600006,15.12616 10.600006,15.791199 10.192368,16.200623 C9.784729,16.611145 9.123604,16.611145 8.715965,16.200623 C8.715965,16.200623 2.304985,9.754272 2.304985,9.754272 C2.101509,9.549377 1.9996567,9.280884 1.9996567,9.011963 Z"/>
</svg>