<svg xmlns="http://www.w3.org/2000/svg"
 xmlns:xlink="http://www.w3.org/1999/xlink"
 width="21px" height="21px"  viewBox="0 0 21 21">
<path fill-rule="evenodd"  fill="#e1e1e1"
 d="M19.24414,17.251831 C19.24414,17.251831 15.471558,13.479553 15.471558,13.479553 C16.380737,12.167236 16.835693,10.703918 16.835693,9.090942 C16.835693,8.042603 16.631958,7.0404053 16.224976,6.082947 C15.818237,5.1259155 15.268188,4.3007812 14.575195,3.607483 C13.882324,2.914978 13.057495,2.3652954 12.100708,1.9584961 C11.143555,1.5512085 10.140625,1.3476562 9.092041,1.3476562 C8.043701,1.3476562 7.0407715,1.5512085 6.0839844,1.9584961 C5.126953,2.3652954 4.302002,2.914978 3.6090088,3.607483 C2.9161377,4.3007812 2.3660889,5.1259155 1.9592285,6.082947 C1.5522461,7.0404053 1.3487549,8.042603 1.3487549,9.090942 C1.3487549,10.139587 1.5522461,11.142517 1.9592285,12.099487 C2.3660889,13.055969 2.9161377,13.880859 3.6090088,14.574158 C4.302002,15.266418 5.126953,15.817139 6.0839844,16.223633 C7.0408936,16.630737 8.043701,16.834778 9.092041,16.834778 C10.705566,16.834778 12.168457,16.379395 13.480835,15.470215 C13.480835,15.470215 17.253296,19.231445 17.253296,19.231445 C17.517334,19.51056 17.847046,19.64978 18.243164,19.64978 C18.62439,19.64978 18.954712,19.51056 19.233032,19.231445 C19.511719,18.953552 19.651001,18.623169 19.651001,18.241882 C19.651123,17.853455 19.515625,17.523376 19.24414,17.251831 ZM12.573486,12.571655 C11.609009,13.536255 10.44873,14.018433 9.092041,14.018433 C7.735718,14.018433 6.5751953,13.536255 5.611084,12.571655 C4.6467285,11.607361 4.164551,10.447632 4.164551,9.090942 C4.164551,7.734253 4.6468506,6.57428 5.611084,5.609436 C6.5751953,4.64563 7.735718,4.163208 9.092041,4.163208 C10.448608,4.163208 11.608887,4.64563 12.573486,5.609436 C13.537598,6.57428 14.02002,7.734253 14.02002,9.090942 C14.02002,10.447632 13.537476,11.607361 12.573486,12.571655 Z"/>
</svg>