<svg xmlns="http://www.w3.org/2000/svg"
 xmlns:xlink="http://www.w3.org/1999/xlink"
 width="21px" height="20px"  viewBox="0 0 21 20">
<path fill-rule="evenodd"  fill="#e1e1e1"
 d="M2.6380615,8.138672 C2.270874,8.280273 2.010254,8.613037 1.958374,9.004883 C1.9068604,9.397705 2.0723877,9.786621 2.3903809,10.019043 C2.3903809,10.019043 5.8708496,12.56665 5.8708496,12.56665 C5.8708496,12.56665 18.23291,2.7827148 18.23291,2.7827148 C18.23291,2.7827148 7.302124,13.616211 7.302124,13.616211 C7.302124,13.616211 12.060181,17.098877 12.060181,17.098877 C12.363037,17.320068 12.753296,17.387451 13.113159,17.2771 C13.47229,17.166748 13.758545,16.892822 13.887207,16.539307 C13.887207,16.539307 18.97705,2.524414 18.97705,2.524414 C19.028442,2.38208 18.992676,2.2229004 18.885376,2.1169434 C18.778198,2.0100098 18.619995,1.9768066 18.479004,2.03125 C18.479004,2.03125 2.6380615,8.138672 2.6380615,8.138672 ZM5.0446777,13.41333 C5.0446777,13.41333 5.0740967,13.575928 5.0740967,13.575928 C5.0740967,13.575928 5.749634,17.291504 5.749634,17.291504 C5.800049,17.567871 5.9833984,17.798828 6.2385254,17.910645 C6.4937744,18.021484 6.788086,17.998047 7.0217285,17.846436 C7.9626465,17.236328 9.191406,16.42627 9.158203,16.378418 C9.158203,16.378418 5.0446777,13.41333 5.0446777,13.41333 Z"/>
</svg>