<svg xmlns="http://www.w3.org/2000/svg"
 xmlns:xlink="http://www.w3.org/1999/xlink"
 width="21px" height="17px"  viewBox="0 0 21 17">
<path fill-rule="evenodd"  fill="#ebebeb"
 d="M3.6262207,6.00708 C3.8414917,6.1552734 4.4901123,6.59375 5.5723877,7.3242188 C6.654785,8.053955 7.4838867,8.615967 8.0598755,9.01001 C8.123169,9.053223 8.257629,9.147217 8.463318,9.291992 C8.668945,9.436768 8.839905,9.553711 8.975891,9.643311 C9.111938,9.732666 9.276489,9.832764 9.469666,9.943359 C9.66272,10.053955 9.844727,10.137207 10.015564,10.192627 C10.186523,10.248047 10.344727,10.275879 10.490295,10.275879 C10.490295,10.275879 10.499878,10.275879 10.499878,10.275879 C10.499878,10.275879 10.509399,10.275879 10.509399,10.275879 C10.654968,10.275879 10.813232,10.248047 10.984192,10.192627 C11.154968,10.137207 11.337158,10.053955 11.53009,9.943359 C11.723022,9.832764 11.887573,9.732666 12.023682,9.643311 C12.159851,9.553711 12.330566,9.436768 12.536377,9.291992 C12.742004,9.147217 12.876587,9.053223 12.93988,9.01001 C13.522034,8.615723 15.003235,7.614746 17.382935,6.00708 C17.84491,5.693115 18.230957,5.314453 18.541077,4.8703613 C18.85144,4.427246 19.006409,3.9621582 19.006409,3.475586 C19.006409,3.0688477 18.855896,2.7209473 18.555298,2.4313965 C18.254639,2.1416016 17.89862,1.9973145 17.487305,1.9973145 C17.487305,1.9973145 3.512207,1.9973145 3.512207,1.9973145 C3.0249634,1.9973145 2.6499023,2.1572266 2.387268,2.477539 C2.1246338,2.7976074 1.9932861,3.1984863 1.9932861,3.678711 C1.9932861,4.0668945 2.1674194,4.4873047 2.515442,4.9399414 C2.8634644,5.3930664 3.2338867,5.748535 3.6262207,6.00708 ZM18.056885,6.9958496 C15.98114,8.363281 14.404968,9.425781 13.329102,10.183594 C12.968384,10.442383 12.675659,10.644531 12.450867,10.7890625 C12.226135,10.933838 11.927185,11.081543 11.553772,11.232422 C11.180359,11.383545 10.832336,11.45874 10.5095215,11.45874 C10.5095215,11.45874 10.499878,11.45874 10.499878,11.45874 C10.499878,11.45874 10.490295,11.45874 10.490295,11.45874 C10.1675415,11.45874 9.819336,11.383545 9.445984,11.232422 C9.072571,11.081543 8.77356,10.933838 8.548767,10.7890625 C8.324158,10.644531 8.031372,10.442383 7.6706543,10.183594 C6.816162,9.57373 5.243408,8.511475 2.9522705,6.9958496 C2.5914307,6.761963 2.2717896,6.4938965 1.9932861,6.1918945 C1.9932861,6.1918945 1.9932861,13.528809 1.9932861,13.528809 C1.9932861,13.935303 2.1420288,14.283203 2.4394531,14.572998 C2.7369995,14.862305 3.0946655,15.00708 3.512329,15.00708 C3.512329,15.00708 17.487427,15.00708 17.487427,15.00708 C17.90503,15.00708 18.262756,14.862305 18.56018,14.572998 C18.857727,14.282959 19.006409,13.935303 19.006409,13.528809 C19.006409,13.528809 19.006409,6.1918945 19.006409,6.1918945 C18.73413,6.487549 18.417847,6.7558594 18.056885,6.9958496 Z"/>
</svg>