<svg xmlns="http://www.w3.org/2000/svg"
 xmlns:xlink="http://www.w3.org/1999/xlink"
 width="74px" height="71px"  viewBox="0 0 74 71">
<path fill-rule="evenodd"  fill="#ebebeb"
 d="M71.32654,18.544922 C71.32654,9.3133545 63.851196,1.8295898 54.62903,1.8295898 C45.407104,1.8295898 37.931274,9.3133545 37.931274,18.544922 C37.931274,27.77649 45.407104,35.260254 54.62903,35.260254 C56.52417,35.260254 58.3385,34.930176 60.036987,34.347168 C56.279297,55.922607 39.47351,69.83533 55.05237,58.384644 C72.32715,45.68701 71.345215,19.05603 71.325806,18.567749 C71.325806,18.560913 71.32654,18.553589 71.32654,18.544922 ZM34.59192,18.544922 C34.59192,9.3133545 27.116577,1.8295898 17.89441,1.8295898 C8.672485,1.8295898 1.1966553,9.3133545 1.1966553,18.544922 C1.1966553,27.77649 8.672485,35.260254 17.89441,35.260254 C19.789795,35.260254 21.60376,34.930176 23.302368,34.347168 C19.544678,55.922607 2.7388916,69.83533 18.317749,58.384644 C35.59253,45.68701 34.610596,19.05603 34.591064,18.567749 C34.591064,18.560913 34.59192,18.553589 34.59192,18.544922 Z"/>
</svg>