<svg xmlns="http://www.w3.org/2000/svg"
 xmlns:xlink="http://www.w3.org/1999/xlink"
 width="17px" height="19px"  viewBox="0 0 17 19">
<path fill-rule="evenodd"  fill="#ebebeb"
 d="M8.499878,9.499756 C9.536377,9.499756 10.421082,9.133057 11.154236,8.399658 C11.887695,7.666504 12.254211,6.781494 12.254211,5.7453613 C12.254211,4.7089844 11.887695,3.8242188 11.154236,3.0910645 C10.4210205,2.3579102 9.536133,1.9909668 8.499878,1.9909668 C7.463501,1.9909668 6.5786133,2.3579102 5.845398,3.0910645 C5.1120605,3.8242188 4.7455444,4.7089844 4.7455444,5.7453613 C4.7455444,6.781494 5.1120605,7.666504 5.845398,8.399658 C6.5787354,9.133057 7.463501,9.499756 8.499878,9.499756 ZM15.348389,13.464111 C15.325439,13.13501 15.279785,12.779541 15.211487,12.3984375 C15.143066,12.01709 15.056641,11.66333 14.9522705,11.337402 C14.848022,11.011475 14.707825,10.694092 14.531799,10.384277 C14.355835,10.074707 14.153809,9.810791 13.925537,9.592285 C13.697205,9.374268 13.418762,9.199707 13.089722,9.06958 C12.760376,8.938965 12.397156,8.873779 11.999451,8.873779 C11.940796,8.873779 11.803894,8.944092 11.588867,9.0842285 C11.37384,9.224121 11.1311035,9.380371 10.860535,9.553223 C10.590149,9.726074 10.238098,9.8828125 9.804749,10.022705 C9.371338,10.162842 8.93634,10.232666 8.499512,10.232666 C8.062805,10.232666 7.6278076,10.162842 7.194336,10.022705 C6.7610474,9.8828125 6.4090576,9.726074 6.138489,9.553223 C5.867981,9.380371 5.625244,9.224121 5.4102173,9.0842285 C5.1950684,8.944092 5.0581665,8.873779 4.9995728,8.873779 C4.6019897,8.873779 4.2386475,8.938965 3.909546,9.06958 C3.5802612,9.199707 3.3017578,9.374268 3.0735474,9.592285 C2.845459,9.810791 2.6433716,10.074707 2.4674683,10.384277 C2.291565,10.694092 2.1513672,11.011475 2.0471191,11.337402 C1.942749,11.66333 1.8564453,12.01709 1.7880249,12.3984375 C1.7194824,12.779541 1.6739502,13.1345215 1.651062,13.464111 C1.6282959,13.793213 1.6169434,14.130371 1.6169434,14.476318 C1.6169434,15.258057 1.8548584,15.875977 2.3305664,16.328613 C2.8064575,16.781494 3.4387207,17.008057 4.227356,17.008057 C4.227356,17.008057 12.7724,17.008057 12.7724,17.008057 C13.560913,17.008057 14.193176,16.781494 14.669067,16.328613 C15.14502,15.875977 15.3828125,15.258057 15.3828125,14.476318 C15.3828125,14.130371 15.371338,13.793213 15.348389,13.464111 Z"/>
</svg>