<svg xmlns="http://www.w3.org/2000/svg"
 xmlns:xlink="http://www.w3.org/1999/xlink"
 width="12px" height="18px"  viewBox="0 0 12 18">
<path fill-rule="evenodd"  fill="#ffffff"
 d="M9.706787,9.754395 C9.706787,9.754395 3.2961426,16.201172 3.2961426,16.201172 C2.8883057,16.61084 2.227295,16.61084 1.8197021,16.201172 C1.4121094,15.791016 1.4121094,15.125977 1.8197021,14.71582 C1.8197021,14.71582 7.4920654,9.011719 7.4920654,9.011719 C7.4920654,9.011719 1.8199463,3.3081055 1.8199463,3.3081055 C1.4122314,2.897461 1.4122314,2.2329102 1.8199463,1.8227539 C2.227417,1.4130859 2.8885498,1.4130859 3.2962646,1.8227539 C3.2962646,1.8227539 9.707031,8.269531 9.707031,8.269531 C9.910889,8.474609 10.012573,8.743652 10.012573,9.011719 C10.012573,9.280273 9.9104,9.549316 9.706787,9.754395 Z"/>
</svg>