<svg xmlns="http://www.w3.org/2000/svg"
 xmlns:xlink="http://www.w3.org/1999/xlink"
 width="12px" height="18px"  viewBox="0 0 12 18">
<path fill-rule="evenodd"  fill="#ffffff"
 d="M2.2930603,9.754395 C2.2930603,9.754395 8.703796,16.201172 8.703796,16.201172 C9.111572,16.61084 9.772583,16.61084 10.180206,16.201172 C10.58786,15.791016 10.58786,15.125977 10.180206,14.71582 C10.180206,14.71582 4.507843,9.011719 4.507843,9.011719 C4.507843,9.011719 10.179993,3.3081055 10.179993,3.3081055 C10.587616,2.897461 10.587616,2.2329102 10.179993,1.8227539 C9.772461,1.4130859 9.111328,1.4130859 8.703583,1.8227539 C8.703583,1.8227539 2.2928467,8.269531 2.2928467,8.269531 C2.0890198,8.474609 1.9872742,8.743652 1.9872742,9.011719 C1.9872742,9.280273 2.0894775,9.549316 2.2930603,9.754395 Z"/>
</svg>