<svg xmlns="http://www.w3.org/2000/svg"
 xmlns:xlink="http://www.w3.org/1999/xlink"
 width="12px" height="18px"  viewBox="0 0 12 18">
<path fill-rule="evenodd"  fill="#ffffff"
 d="M9.706787,9.753174 C9.706787,9.753174 3.2960205,16.199463 3.2960205,16.199463 C2.8883057,16.610352 2.227295,16.610352 1.8195801,16.199463 C1.4119873,15.789795 1.4119873,15.124756 1.8195801,14.715576 C1.8195801,14.715576 7.4919434,9.01123 7.4919434,9.01123 C7.4919434,9.01123 1.8198242,3.3066406 1.8198242,3.3066406 C1.4122314,2.8964844 1.4122314,2.2316895 1.8198242,1.8217773 C2.227295,1.4116211 2.8884277,1.4116211 3.2962646,1.8217773 C3.2962646,1.8217773 9.707031,8.268311 9.707031,8.268311 C9.910767,8.473877 10.012573,8.7421875 10.012573,9.01123 C10.012573,9.279785 9.9104,9.54834 9.706787,9.753174 Z"/>
</svg>