<svg xmlns="http://www.w3.org/2000/svg"
 xmlns:xlink="http://www.w3.org/1999/xlink"
 width="12px" height="18px"  viewBox="0 0 12 18">
<path fill-rule="evenodd"  fill="#ffffff"
 d="M2.2931213,9.753174 C2.2931213,9.753174 8.703857,16.199463 8.703857,16.199463 C9.111633,16.610352 9.772644,16.610352 10.180267,16.199463 C10.587891,15.789795 10.587891,15.124756 10.180267,14.715576 C10.180267,14.715576 4.5078735,9.01123 4.5078735,9.01123 C4.5078735,9.01123 10.180054,3.3066406 10.180054,3.3066406 C10.587677,2.8964844 10.587677,2.2316895 10.180054,1.8217773 C9.772522,1.4116211 9.111389,1.4116211 8.703644,1.8217773 C8.703644,1.8217773 2.2928772,8.268311 2.2928772,8.268311 C2.0890503,8.473877 1.9873352,8.7421875 1.9873352,9.01123 C1.9873352,9.279785 2.0895386,9.54834 2.2931213,9.753174 Z"/>
</svg>