<svg xmlns="http://www.w3.org/2000/svg"
 xmlns:xlink="http://www.w3.org/1999/xlink"
 width="13px" height="13px"  viewBox="0 0 13 13">
<path fill-rule="evenodd"  fill="#ffffff"
 d="M11.183899,9.8515625 C11.183899,9.8515625 9.227783,7.895508 9.227783,7.895508 C9.69928,7.2148438 9.93512,6.4560547 9.93512,5.620117 C9.93512,5.076172 9.829468,4.5561523 9.618469,4.0600586 C9.40741,3.5639648 9.122253,3.1362305 8.7630005,2.7768555 C8.403687,2.4174805 7.9761353,2.1323242 7.4799194,1.9213867 C6.9837036,1.7104492 6.463684,1.6044922 5.919983,1.6044922 C5.3762207,1.6044922 4.856201,1.7104492 4.3601074,1.9213867 C3.8638916,2.1323242 3.4361572,2.4174805 3.0769043,2.7768555 C2.7175293,3.1362305 2.432373,3.5639648 2.2214355,4.0600586 C2.010437,4.5561523 1.9049072,5.076172 1.9049072,5.620117 C1.9049072,6.163574 2.010437,6.6835938 2.2214355,7.1796875 C2.432373,7.6762695 2.7175293,8.103516 3.0769043,8.462891 C3.4361572,8.822266 3.8638916,9.107422 4.3601074,9.318359 C4.8563232,9.529297 5.3762207,9.634766 5.919983,9.634766 C6.756531,9.634766 7.5150146,9.398926 8.195618,8.927734 C8.195618,8.927734 10.151611,10.87793 10.151611,10.87793 C10.288513,11.022461 10.459473,11.094727 10.664917,11.094727 C10.862549,11.094727 11.0338745,11.022461 11.178162,10.87793 C11.322632,10.733398 11.394897,10.5625 11.394897,10.364746 C11.394897,10.163574 11.324768,9.9921875 11.183899,9.8515625 ZM7.7250366,7.4243164 C7.2250366,7.9248047 6.623413,8.174316 5.919983,8.174316 C5.216614,8.174316 4.614868,7.9248047 4.11499,7.4243164 C3.6148682,6.9248047 3.3648682,6.323242 3.3648682,5.620117 C3.3648682,4.9160156 3.6149902,4.3149414 4.11499,3.8144531 C4.614868,3.3144531 5.216614,3.0644531 5.919983,3.0644531 C6.623291,3.0644531 7.2249146,3.3144531 7.7250366,3.8144531 C8.225037,4.3149414 8.475098,4.9160156 8.475098,5.620117 C8.475098,6.323242 8.225037,6.9248047 7.7250366,7.4243164 Z"/>
</svg>