<svg xmlns="http://www.w3.org/2000/svg"
 xmlns:xlink="http://www.w3.org/1999/xlink"
 width="29px" height="29px"  viewBox="0 0 29 29">
<path fill-rule="evenodd"  fill="#e1e1e1"
 d="M15.9783325,1.9610596 C15.9783325,1.9610596 27.005188,1.9610596 27.005188,1.9610596 C27.005188,1.9610596 27.005188,13.013916 27.005188,13.013916 C27.005188,13.013916 15.9783325,13.013916 15.9783325,13.013916 C15.9783325,13.013916 15.9783325,1.9610596 15.9783325,1.9610596 ZM1.9926758,1.9610596 C1.9926758,1.9610596 13.018555,1.9610596 13.018555,1.9610596 C13.018555,1.9610596 13.018555,13.013916 13.018555,13.013916 C13.018555,13.013916 1.9926758,13.013916 1.9926758,13.013916 C1.9926758,13.013916 1.9926758,1.9610596 1.9926758,1.9610596 ZM1.9926758,15.981567 C1.9926758,15.981567 13.018555,15.981567 13.018555,15.981567 C13.018555,15.981567 13.018555,27.036255 13.018555,27.036255 C13.018555,27.036255 1.9926758,27.036255 1.9926758,27.036255 C1.9926758,27.036255 1.9926758,15.981567 1.9926758,15.981567 ZM15.9783325,15.981567 C15.9783325,15.981567 27.005188,15.981567 27.005188,15.981567 C27.005188,15.981567 27.005188,27.036255 27.005188,27.036255 C27.005188,27.036255 15.9783325,27.036255 15.9783325,27.036255 C15.9783325,27.036255 15.9783325,15.981567 15.9783325,15.981567 Z"/>
</svg>