<svg xmlns="http://www.w3.org/2000/svg"
 xmlns:xlink="http://www.w3.org/1999/xlink"
 width="21px" height="22px"  viewBox="0 0 21 22">
<path fill-rule="evenodd"  fill="#e1e1e1"
 d="M16.138428,14.340515 C15.382324,14.340515 14.687378,14.597595 14.130615,15.025391 C14.130615,15.025391 8.38623,11.579041 8.38623,11.579041 C8.415039,11.40271 8.43396,11.222961 8.43396,11.038513 C8.43396,10.853882 8.415039,10.674622 8.38623,10.498047 C8.38623,10.498047 14.130615,7.0514526 14.130615,7.0514526 C14.687378,7.4798584 15.382324,7.7366333 16.138428,7.7366333 C17.961914,7.7366333 19.440308,6.2581177 19.440308,4.4347534 C19.440308,2.6113892 17.961914,1.1329346 16.138428,1.1329346 C14.315063,1.1329346 12.836548,2.6113892 12.836548,4.4347534 C12.836548,4.6190796 12.855469,4.798828 12.884766,4.9751587 C12.884766,4.9751587 7.140259,8.421631 7.140259,8.421631 C6.583496,7.9937134 5.888794,7.7366333 5.13208,7.7366333 C3.3085938,7.7366333 1.8302002,9.215271 1.8302002,11.038513 C1.8302002,12.8619995 3.3085938,14.340515 5.13208,14.340515 C5.888794,14.340515 6.583496,14.08374 7.140259,13.655151 C7.140259,13.655151 12.884766,17.101807 12.884766,17.101807 C12.855469,17.27832 12.836548,17.457764 12.836548,17.642517 C12.836548,19.46576 14.315063,20.944397 16.138428,20.944397 C17.961914,20.944397 19.440308,19.46576 19.440308,17.642517 C19.440308,15.819153 17.961914,14.340515 16.138428,14.340515 Z"/>
</svg>