<svg xmlns="http://www.w3.org/2000/svg"
 xmlns:xlink="http://www.w3.org/1999/xlink"
 width="23px" height="23px"  viewBox="0 0 23 23">
<path fill-rule="evenodd"  fill="#e1e1e1"
 d="M19.583496,10.4592285 C19.583496,10.4592285 16.072998,13.968079 16.072998,13.968079 C14.135254,15.906799 10.992065,15.906799 9.054321,13.968079 C8.749023,13.664246 8.510254,13.321228 8.300781,12.967285 C8.300781,12.967285 9.931641,11.336243 9.931641,11.336243 C10.009277,11.25824 10.105103,11.213684 10.196533,11.1604 C10.309204,11.545959 10.5061035,11.911011 10.80896,12.213989 C11.776733,13.18219 13.35144,13.180969 14.318359,12.213989 C14.318359,12.213989 17.827637,8.705139 17.827637,8.705139 C18.795654,7.736145 18.795654,6.1621094 17.827637,5.194641 C16.860596,4.227112 15.286499,4.227112 14.318359,5.194641 C14.318359,5.194641 13.07019,6.444092 13.07019,6.444092 C12.057861,6.0496216 10.966553,5.9431763 9.904297,6.098877 C9.904297,6.098877 12.563599,3.4398804 12.563599,3.4398804 C14.502563,1.5014648 17.644531,1.5014648 19.583496,3.4398804 C21.521118,5.378235 21.521118,8.520325 19.583496,10.4592285 ZM10.3029785,16.22998 C10.3029785,16.22998 9.054321,17.478943 9.054321,17.478943 C8.086792,18.445618 6.512085,18.445618 5.5445557,17.478943 C4.5770264,16.51056 4.5770264,14.936951 5.5445557,13.968079 C5.5445557,13.968079 9.054321,10.4592285 9.054321,10.4592285 C10.022705,9.491028 11.596069,9.491028 12.563599,10.4592285 C12.866089,10.761536 13.062988,11.125732 13.176758,11.51062 C13.269043,11.457642 13.363525,11.413757 13.441162,11.336243 C13.441162,11.336243 15.0720215,9.7057495 15.0720215,9.7057495 C14.86377,9.351318 14.623779,9.009644 14.318359,8.705139 C12.380737,6.76593 9.237427,6.76593 7.2991943,8.705139 C7.2991943,8.705139 3.789917,12.213989 3.789917,12.213989 C1.8516846,14.152527 1.8516846,17.294983 3.789917,19.23352 C5.7280273,21.170532 8.870972,21.170532 10.80896,19.23352 C10.80896,19.23352 13.468872,16.57367 13.468872,16.57367 C12.40625,16.729858 11.314941,16.623413 10.3029785,16.22998 Z"/>
</svg>