<svg xmlns="http://www.w3.org/2000/svg"
 xmlns:xlink="http://www.w3.org/1999/xlink"
 width="21px" height="21px"  viewBox="0 0 21 21">
<path fill-rule="evenodd"  fill="#e1e1e1"
 d="M10.499878,10.499695 C11.79541,10.499695 12.901489,10.041321 13.817871,9.124756 C14.734497,8.208374 15.192749,7.102478 15.192749,5.8067627 C15.192749,4.5115356 14.734497,3.4055176 13.817871,2.4889526 C12.901245,1.5723877 11.795166,1.1141968 10.499878,1.1141968 C9.204346,1.1141968 8.098389,1.5723877 7.181885,2.4889526 C6.265259,3.4055176 5.807007,4.5115356 5.807007,5.8067627 C5.807007,7.102478 6.265259,8.208374 7.181885,9.124756 C8.098511,10.041321 9.204346,10.499695 10.499878,10.499695 ZM19.060547,15.455261 C19.031738,15.043823 18.974854,14.599731 18.889404,14.12323 C18.803955,13.646545 18.6958,13.204651 18.56543,12.797241 C18.435059,12.389954 18.259888,11.992798 18.039795,11.605713 C17.819824,11.218689 17.56726,10.888794 17.281982,10.615723 C16.996582,10.342834 16.64856,10.124878 16.237305,9.962158 C15.825562,9.799011 15.37146,9.717468 14.874512,9.717468 C14.801025,9.717468 14.629883,9.805237 14.361206,9.980286 C14.092407,10.15564 13.78894,10.351196 13.450806,10.567139 C13.112671,10.782837 12.672607,10.978394 12.130981,11.153442 C11.589233,11.328491 11.045532,11.416077 10.49939,11.416077 C9.953491,11.416077 9.40979,11.328491 8.868042,11.153442 C8.326294,10.978394 7.8862305,10.782837 7.5480957,10.567139 C7.210083,10.351196 6.906494,10.15564 6.6378174,9.980286 C6.3688965,9.805237 6.197754,9.717468 6.1245117,9.717468 C5.6275635,9.717468 5.17334,9.799011 4.761963,9.962158 C4.350342,10.124878 4.0021973,10.342834 3.716919,10.615723 C3.4318848,10.888794 3.1791992,11.218689 2.9593506,11.605713 C2.739502,11.992798 2.564331,12.389954 2.43396,12.797241 C2.3034668,13.204651 2.1955566,13.646545 2.1101074,14.12323 C2.024414,14.599731 1.9674072,15.04364 1.9388428,15.455261 C1.9104004,15.866882 1.8962402,16.288208 1.8962402,16.72052 C1.8962402,17.697632 2.1936035,18.46991 2.78833,19.036072 C3.3831787,19.602173 4.173462,19.885193 5.1593018,19.885193 C5.1593018,19.885193 15.840454,19.885193 15.840454,19.885193 C16.826294,19.885193 17.616455,19.602173 18.211304,19.036072 C18.806274,18.46991 19.103638,17.697937 19.103638,16.72052 C19.103638,16.288208 19.089233,15.866699 19.060547,15.455261 Z"/>
</svg>