<svg xmlns="http://www.w3.org/2000/svg"
 xmlns:xlink="http://www.w3.org/1999/xlink"
 width="23px" height="18px"  viewBox="0 0 23 18">
<path fill-rule="evenodd"  fill="#e1e1e1"
 d="M17.204468,10.296387 C17.204468,9.946106 17.079834,9.639587 16.830688,9.376953 C16.830688,9.376953 9.606812,2.1629028 9.606812,2.1629028 C9.35083,1.9067993 9.007324,1.6896973 8.576172,1.5112915 C8.145142,1.3327637 7.7510986,1.2434692 7.394043,1.2434692 C7.394043,1.2434692 3.19104,1.2434692 3.19104,1.2434692 C2.8408203,1.2434692 2.5375977,1.371582 2.2817383,1.6273193 C2.0256348,1.8832397 1.8978271,2.1865845 1.8978271,2.5368042 C1.8978271,2.5368042 1.8978271,6.739929 1.8978271,6.739929 C1.8978271,7.096924 1.9868164,7.490906 2.1654053,7.921814 C2.3439941,8.353149 2.5612793,8.693115 2.8171387,8.942505 C2.8171387,8.942505 10.041016,16.176575 10.041016,16.176575 C10.290283,16.425781 10.593506,16.550537 10.950317,16.550537 C11.300781,16.550537 11.6073,16.425781 11.869873,16.176575 C11.869873,16.176575 16.830688,11.205505 16.830688,11.205505 C17.079834,10.956177 17.204468,10.65332 17.204468,10.296387 ZM6.04541,5.3911133 C5.7927246,5.6434937 5.487793,5.7700806 5.1307373,5.7700806 C4.773926,5.7700806 4.4692383,5.6434937 4.2165527,5.3911133 C3.9638672,5.1383667 3.8377686,4.833679 3.8377686,4.4765625 C3.8377686,4.119751 3.9638672,3.8150635 4.2165527,3.562378 C4.4692383,3.3096313 4.773926,3.1833496 5.1307373,3.1833496 C5.487793,3.1833496 5.7927246,3.3096313 6.04541,3.562378 C6.2978516,3.8150635 6.4241943,4.119751 6.4241943,4.4765625 C6.4241943,4.833679 6.2978516,5.1383667 6.04541,5.3911133 ZM20.710205,9.377136 C20.710205,9.377136 13.486328,2.163025 13.486328,2.163025 C13.230347,1.9069824 12.886841,1.6898804 12.455688,1.5112915 C12.02478,1.3329468 11.630615,1.2436523 11.27356,1.2436523 C11.27356,1.2436523 9.010498,1.2436523 9.010498,1.2436523 C9.367432,1.2436523 9.761475,1.3329468 10.192505,1.5112915 C10.623657,1.6898804 10.967163,1.9071045 11.223145,2.163025 C11.223145,2.163025 18.447144,9.377136 18.447144,9.377136 C18.696411,9.639587 18.821167,9.946106 18.821167,10.296387 C18.821167,10.65332 18.696411,10.956177 18.447144,11.205505 C18.447144,11.205505 13.698486,15.954285 13.698486,15.954285 C13.900757,16.162964 14.079102,16.314636 14.234131,16.408936 C14.388916,16.503296 14.5876465,16.550537 14.830078,16.550537 C15.18042,16.550537 15.486938,16.425781 15.749512,16.176575 C15.749512,16.176575 20.710205,11.205505 20.710205,11.205505 C20.959595,10.956177 21.084229,10.65332 21.084229,10.296387 C21.084229,9.946106 20.959595,9.639587 20.710205,9.377136 Z"/>
</svg>