<svg xmlns="http://www.w3.org/2000/svg"
 xmlns:xlink="http://www.w3.org/1999/xlink"
 width="21px" height="21px"  viewBox="0 0 21 21">
<path fill-rule="evenodd"  fill="#e1e1e1"
 d="M18.626953,5.788513 C17.787842,4.350708 16.649292,3.2122192 15.211426,2.3728027 C13.773071,1.5336304 12.203125,1.1140747 10.500244,1.1140747 C8.797485,1.1140747 7.2269287,1.5336304 5.7890625,2.3728027 C4.350952,3.2122192 3.2125244,4.350525 2.373169,5.788513 C1.5338135,7.2266846 1.1143799,8.797119 1.1143799,10.499939 C1.1143799,12.202393 1.5339355,13.772705 2.3730469,15.210999 C3.2122803,16.648804 4.35083,17.787354 5.7888184,18.626709 C7.2269287,19.46576 8.797241,19.885254 10.500122,19.885254 C12.202881,19.885254 13.7734375,19.46576 15.211304,18.626709 C16.64917,17.787476 17.78772,16.648804 18.626953,15.210999 C19.466064,13.772705 19.88562,12.202393 19.88562,10.499939 C19.88562,8.796997 19.466064,7.2265015 18.626953,5.788513 ZM16.256104,13.836243 C15.661499,14.85437 14.854858,15.661133 13.836426,16.255676 C12.817993,16.850586 11.705933,17.147888 10.500122,17.147888 C9.294312,17.147888 8.182251,16.850586 7.1636963,16.255676 C6.1453857,15.661133 5.338745,14.85437 4.7440186,13.836243 C4.14917,12.817627 3.8519287,11.705688 3.8519287,10.499939 C3.8519287,9.294006 4.149414,8.181702 4.7440186,7.1636353 C5.338623,6.1450195 6.145508,5.338562 7.1636963,4.7436523 C8.182129,4.1488037 9.294189,3.8515015 10.500122,3.8515015 C11.705933,3.8515015 12.817993,4.1488037 13.836426,4.7436523 C14.854858,5.338562 15.661499,6.1450195 16.256104,7.1636353 C16.85083,8.181702 17.148071,9.294006 17.148071,10.499939 C17.148071,11.705688 16.85083,12.817627 16.256104,13.836243 ZM11.673462,5.807007 C11.673462,5.807007 10.891113,5.807007 10.891113,5.807007 C10.776855,5.807007 10.683472,5.843689 10.609985,5.916809 C10.536865,5.9901123 10.500122,6.0838013 10.500122,6.197937 C10.500122,6.197937 10.500122,10.499939 10.500122,10.499939 C10.500122,10.499939 7.7625732,10.499939 7.7625732,10.499939 C7.6483154,10.499939 7.5548096,10.536438 7.4814453,10.609558 C7.408081,10.682861 7.37146,10.77655 7.37146,10.891052 C7.37146,10.891052 7.37146,11.6727295 7.37146,11.6727295 C7.37146,11.787109 7.408081,11.880554 7.4814453,11.954224 C7.5548096,12.027344 7.6485596,12.063843 7.7625732,12.063843 C7.7625732,12.063843 11.673584,12.063843 11.673584,12.063843 C11.787598,12.063843 11.881226,12.027344 11.954346,11.954224 C12.027588,11.880554 12.064453,11.787109 12.064453,11.6727295 C12.064453,11.6727295 12.064453,6.197937 12.064453,6.197937 C12.064453,6.0838013 12.027588,5.9901123 11.954346,5.916809 C11.8811035,5.843689 11.7873535,5.807007 11.673462,5.807007 Z"/>
</svg>