<svg xmlns="http://www.w3.org/2000/svg"
 xmlns:xlink="http://www.w3.org/1999/xlink"
 width="12px" height="18px"  viewBox="0 0 12 18">
<path fill-rule="evenodd"  fill="#ffffff"
 d="M2.2930908,9.753906 C2.2930908,9.753906 8.703857,16.20044 8.703857,16.20044 C9.111572,16.610962 9.772583,16.610962 10.180237,16.20044 C10.587891,15.791138 10.587891,15.126099 10.180237,14.716187 C10.180237,14.716187 4.5078735,9.011719 4.5078735,9.011719 C4.5078735,9.011719 10.179993,3.3078613 10.179993,3.3078613 C10.5876465,2.897583 10.5876465,2.2324219 10.179993,1.8226318 C9.772461,1.4124756 9.111328,1.4124756 8.703613,1.8226318 C8.703613,1.8226318 2.2928467,8.269897 2.2928467,8.269897 C2.0890503,8.4748535 1.9873047,8.743042 1.9873047,9.011719 C1.9873047,9.2803955 2.0894775,9.549072 2.2930908,9.753906 Z"/>
</svg>