<svg xmlns="http://www.w3.org/2000/svg"
 xmlns:xlink="http://www.w3.org/1999/xlink"
 width="12px" height="18px"  viewBox="0 0 12 18">
<path fill-rule="evenodd"  fill="#ffffff"
 d="M9.706787,9.753906 C9.706787,9.753906 3.2960815,16.20044 3.2960815,16.20044 C2.8883057,16.610962 2.227295,16.610962 1.8196411,16.20044 C1.4119873,15.791138 1.4119873,15.126099 1.8196411,14.716187 C1.8196411,14.716187 7.4920654,9.011719 7.4920654,9.011719 C7.4920654,9.011719 1.8198853,3.3078613 1.8198853,3.3078613 C1.4122314,2.897583 1.4122314,2.2324219 1.8198853,1.8226318 C2.227417,1.4124756 2.8885498,1.4124756 3.2962646,1.8226318 C3.2962646,1.8226318 9.707031,8.269897 9.707031,8.269897 C9.910889,8.4748535 10.012573,8.743042 10.012573,9.011719 C10.012573,9.2803955 9.9104,9.549072 9.706787,9.753906 Z"/>
</svg>