<svg xmlns="http://www.w3.org/2000/svg"
 xmlns:xlink="http://www.w3.org/1999/xlink"
 width="15px" height="13px"  viewBox="0 0 15 13">
<path fill-rule="evenodd"  fill="#e1e1e1"
 d="M2.2600098,4.753418 C2.4240723,4.8571777 2.918457,5.164795 3.7434692,5.675537 C4.5686035,6.1862793 5.2006836,6.579834 5.6397705,6.855713 C5.6879883,6.8862305 5.7905273,6.9519043 5.9472656,7.0527344 C6.104065,7.1540527 6.234436,7.236328 6.3380127,7.298584 C6.4417725,7.3620605 6.5671997,7.4311523 6.7144775,7.5095215 C6.8616943,7.5861816 7.000366,7.6452637 7.130615,7.6835938 C7.2609253,7.722168 7.3814697,7.741699 7.4924316,7.741699 C7.4924316,7.741699 7.499756,7.741699 7.499756,7.741699 C7.499756,7.741699 7.507019,7.741699 7.507019,7.741699 C7.617981,7.741699 7.7386475,7.722168 7.8689575,7.6835938 C7.9990845,7.6452637 8.1380005,7.5861816 8.285095,7.5095215 C8.432129,7.4311523 8.557678,7.3620605 8.661377,7.298584 C8.765137,7.236328 8.895386,7.1540527 9.052185,7.0527344 C9.208984,6.9519043 9.311523,6.8862305 9.359802,6.855713 C9.803589,6.579834 10.932678,5.8791504 12.746765,4.753418 C13.098938,4.5336914 13.393127,4.2685547 13.629578,3.958496 C13.866272,3.647461 13.984375,3.3220215 13.984375,2.9816895 C13.984375,2.6967773 13.869568,2.4538574 13.640442,2.2507324 C13.411255,2.0476074 13.139893,1.9465332 12.826294,1.9465332 C12.826294,1.9465332 2.1730347,1.9465332 2.1730347,1.9465332 C1.8016357,1.9465332 1.515686,2.059082 1.3154907,2.2832031 C1.1153564,2.5073242 1.0151367,2.7875977 1.0151367,3.1237793 C1.0151367,3.395996 1.1479492,3.6901855 1.413269,4.006836 C1.6785278,4.3237305 1.9609375,4.57251 2.2600098,4.753418 ZM13.260498,5.4455566 C11.678162,6.402832 10.476624,7.1469727 9.656555,7.67749 C9.381531,7.8586426 9.158386,7.999756 8.987061,8.101074 C8.815735,8.202148 8.587769,8.306152 8.303162,8.411377 C8.018555,8.517578 7.753174,8.570068 7.50708,8.570068 C7.50708,8.570068 7.499756,8.570068 7.499756,8.570068 C7.499756,8.570068 7.4924316,8.570068 7.4924316,8.570068 C7.246399,8.570068 6.981018,8.517578 6.696411,8.411377 C6.411682,8.306152 6.183838,8.202148 6.01239,8.101074 C5.8411865,7.999756 5.618042,7.8586426 5.3430176,7.67749 C4.6916504,7.250244 3.4927368,6.5061035 1.7461548,5.4455566 C1.4711304,5.2822266 1.2275391,5.0944824 1.0151367,4.8830566 C1.0151367,4.8830566 1.0151367,10.019043 1.0151367,10.019043 C1.0151367,10.303711 1.12854,10.546875 1.3553467,10.749512 C1.5821533,10.952393 1.8547363,11.053467 2.1731567,11.053467 C2.1731567,11.053467 12.826416,11.053467 12.826416,11.053467 C13.144714,11.053467 13.417419,10.952393 13.644226,10.749512 C13.871033,10.546875 13.984375,10.303711 13.984375,10.019043 C13.984375,10.019043 13.984375,4.8830566 13.984375,4.8830566 C13.776733,5.0898438 13.535645,5.277588 13.260498,5.4455566 Z"/>
</svg>