<svg xmlns="http://www.w3.org/2000/svg"
 xmlns:xlink="http://www.w3.org/1999/xlink"
 width="17px" height="17px"  viewBox="0 0 17 17">
<path fill-rule="evenodd"  fill="#636363"
 d="M15.495117,13.900925 C15.495117,13.900925 12.477051,10.883163 12.477051,10.883163 C13.204468,9.833145 13.568359,8.662842 13.568359,7.3724976 C13.568359,6.5338593 13.4053955,5.731308 13.079834,4.9656525 C12.754395,4.200012 12.314331,3.5401459 11.76001,2.9856873 C11.205566,2.4320374 10.545898,1.9919281 9.7803955,1.6665802 C9.014648,1.3400269 8.21228,1.1779633 7.373413,1.1779633 C6.534668,1.1779633 5.732422,1.3400269 4.967041,1.6665802 C4.201416,1.9919281 3.5413818,2.4320374 2.9870605,2.9856873 C2.4327393,3.5401459 1.9926758,4.200012 1.6672363,4.9656525 C1.3415527,5.731308 1.1787109,6.5338593 1.1787109,7.3724976 C1.1787109,8.210922 1.3415527,9.013062 1.6672363,9.779114 C1.9926758,10.544357 2.4327393,11.20401 2.9870605,11.758484 C3.5413818,12.312546 4.201416,12.752853 4.967041,13.0784 C5.732544,13.403946 6.534668,13.567429 7.373413,13.567429 C8.664185,13.567429 9.834595,13.2031555 10.8845215,12.475616 C10.8845215,12.475616 13.902466,15.4848175 13.902466,15.4848175 C14.113647,15.708038 14.377441,15.819138 14.694336,15.819138 C14.99939,15.819138 15.26355,15.708038 15.486206,15.4848175 C15.709106,15.262222 15.820679,14.997833 15.820679,14.693283 C15.820801,14.382004 15.71228,14.118225 15.495117,13.900925 ZM10.158569,10.157059 C9.387085,10.928421 8.458862,11.314087 7.373413,11.314087 C6.28833,11.314087 5.3599854,10.928421 4.588623,10.157059 C3.8171387,9.385696 3.4313965,8.457367 3.4313965,7.3724976 C3.4313965,6.2870026 3.8172607,5.3592834 4.588623,4.586914 C5.3599854,3.8159637 6.28833,3.430069 7.373413,3.430069 C8.45874,3.430069 9.386963,3.8159637 10.158569,4.586914 C10.929932,5.3592834 11.315796,6.2870026 11.315796,7.3724976 C11.315796,8.457367 10.92981,9.385696 10.158569,10.157059 Z"/>
</svg>