<svg xmlns="http://www.w3.org/2000/svg"
 xmlns:xlink="http://www.w3.org/1999/xlink"
 width="17px" height="16px"  viewBox="0 0 17 16">
<path fill-rule="evenodd"  fill="#464646"
 d="M2.2072754,6.51001 C1.9134521,6.623291 1.704956,6.8896484 1.6634521,7.203369 C1.6221924,7.517578 1.7547607,7.8291016 2.0090332,8.014648 C2.0090332,8.014648 4.793457,10.05249 4.793457,10.05249 C4.793457,10.05249 14.682983,2.2250977 14.682983,2.2250977 C14.682983,2.2250977 5.9384766,10.892334 5.9384766,10.892334 C5.9384766,10.892334 9.744873,13.678711 9.744873,13.678711 C9.987305,13.855713 10.299438,13.908936 10.58728,13.821045 C10.874512,13.732422 11.103638,13.513672 11.206543,13.230469 C11.206543,13.230469 15.278442,2.0185547 15.278442,2.0185547 C15.31958,1.9050293 15.290894,1.7773438 15.205078,1.6928711 C15.119263,1.6069336 14.992798,1.5810547 14.880005,1.6242676 C14.880005,1.6242676 2.2072754,6.51001 2.2072754,6.51001 ZM4.1324463,10.72998 C4.1324463,10.72998 4.156006,10.860352 4.156006,10.860352 C4.156006,10.860352 4.696411,13.832275 4.696411,13.832275 C4.7366943,14.053467 4.883423,14.238281 5.0876465,14.327637 C5.291748,14.416748 5.5273438,14.397949 5.7142334,14.276367 C6.466919,13.78833 7.449951,13.140137 7.42334,13.102051 C7.42334,13.102051 4.1324463,10.72998 4.1324463,10.72998 Z"/>
</svg>