<svg xmlns="http://www.w3.org/2000/svg"
 xmlns:xlink="http://www.w3.org/1999/xlink"
 width="14px" height="20px"  viewBox="0 0 14 20">
<path fill-rule="evenodd"  fill="#464646"
 d="M6.8725586,1.442627 C3.65979,1.442627 1.0460205,4.02417 1.0460205,7.19751 C1.0460205,10.251709 6.3323975,17.387695 6.5577393,17.689209 C6.5577393,17.689209 6.767578,17.972168 6.767578,17.972168 C6.7923584,18.005371 6.831299,18.024658 6.8725586,18.024658 C6.9144287,18.024658 6.953125,18.005371 6.9780273,17.972168 C6.9780273,17.972168 7.1879883,17.689209 7.1879883,17.689209 C7.41333,17.387695 12.699585,10.251709 12.699585,7.19751 C12.699585,4.02417 10.085449,1.442627 6.8725586,1.442627 ZM6.83313,4.666504 C8.213867,4.666504 9.333252,5.7854004 9.333252,7.16626 C9.333252,8.546875 8.213867,9.6657715 6.83313,9.6657715 C5.4523926,9.6657715 4.333252,8.546875 4.333252,7.16626 C4.333252,5.7854004 5.4523926,4.666504 6.83313,4.666504 Z"/>
</svg>