<svg xmlns="http://www.w3.org/2000/svg"
 xmlns:xlink="http://www.w3.org/1999/xlink"
 width="12px" height="19px"  viewBox="0 0 12 19">
<path fill-rule="evenodd"  fill="#464646"
 d="M4.0770264,17.907227 C3.696289,17.907227 3.0771484,17.95581 2.7001953,17.904785 C2.00708,17.810547 1.0388184,17.389404 1.0388184,15.766602 C1.0388184,15.766602 1.0388184,3.9924316 1.0388184,3.9924316 C1.0388184,3.9924316 1.0726318,1.9331055 3.2514648,1.9331055 C3.2514648,1.9331055 8.597656,1.9331055 8.597656,1.9331055 C8.597656,1.9331055 10.993774,1.8601074 10.993774,4.0134277 C10.993774,4.0134277 10.993774,15.22583 10.993774,15.22583 C10.993774,15.569092 10.984375,16.130371 10.874268,16.459229 C10.670898,17.06665 10.12207,17.907227 8.640747,17.907227 C8.640747,17.907227 4.0770264,17.907227 4.0770264,17.907227 C4.0770264,17.907227 4.0770264,17.907227 4.0770264,17.907227 ZM5.9798584,16.972656 C6.3061523,16.972656 6.567749,16.733887 6.567749,16.442871 C6.567749,16.148438 6.3061523,15.9123535 5.9798584,15.9123535 C5.657959,15.9123535 5.3934326,16.148438 5.3934326,16.442871 C5.3934326,16.733887 5.658325,16.972656 5.9798584,16.972656 ZM6.984741,2.932129 C6.984741,2.932129 5.04834,2.932129 5.04834,2.932129 C4.6676025,2.932129 4.3587646,3.154541 4.3587646,3.4299316 C4.3587646,3.7053223 4.6676025,3.9279785 5.04834,3.9279785 C5.04834,3.9279785 6.984741,3.9279785 6.984741,3.9279785 C7.3652344,3.9279785 7.6743164,3.7053223 7.6743164,3.4299316 C7.6743164,3.1557617 7.3656006,2.932129 6.984741,2.932129 ZM9.197754,4.927002 C9.197754,4.927002 2.834961,4.927002 2.834961,4.927002 C2.4543457,4.927002 2.1452637,5.2055664 2.1452637,5.5493164 C2.1452637,5.5493164 2.1452637,14.291504 2.1452637,14.291504 C2.1452637,14.6345215 2.4543457,14.913574 2.834961,14.913574 C2.834961,14.913574 9.198364,14.913574 9.198364,14.913574 C9.579224,14.913574 9.888062,14.6345215 9.888062,14.291504 C9.888062,14.291504 9.888062,5.5493164 9.888062,5.5493164 C9.887329,5.205078 9.578857,4.927002 9.197754,4.927002 Z"/>
</svg>