<svg xmlns="http://www.w3.org/2000/svg"
 xmlns:xlink="http://www.w3.org/1999/xlink"
 width="33px" height="32px"  viewBox="0 0 33 32">
<path fill-rule="evenodd"  fill="#e5493a"
 d="M2.1531982,23.098389 C2.1531982,26.999817 5.312378,30.162476 9.209717,30.162476 C13.106934,30.162476 16.266235,26.999817 16.266235,23.098389 C16.266235,19.197021 13.106934,16.03424 9.209717,16.03424 C8.408813,16.03424 7.64209,16.173828 6.9243164,16.420227 C8.512207,7.3026733 15.614502,1.4229736 9.030762,6.26178 C1.7303467,11.627991 2.1453857,22.882507 2.1535645,23.088867 C2.1535645,23.091858 2.1531982,23.094666 2.1531982,23.098389 ZM17.67749,23.098389 C17.67749,26.999817 20.83667,30.162476 24.733887,30.162476 C28.631226,30.162476 31.790405,26.999817 31.790405,23.098389 C31.790405,19.197021 28.631226,16.03424 24.733887,16.03424 C23.932983,16.03424 23.16626,16.173828 22.448486,16.420227 C24.036499,7.3026733 31.138672,1.4229736 24.555054,6.26178 C17.254639,11.627991 17.669556,22.882507 17.677856,23.088867 C17.677856,23.091858 17.67749,23.094666 17.67749,23.098389 Z"/>
</svg>