<svg xmlns="http://www.w3.org/2000/svg"
 xmlns:xlink="http://www.w3.org/1999/xlink"
 width="33px" height="32px"  viewBox="0 0 33 32">
<path fill-rule="evenodd"  fill="#e5493a"
 d="M30.846436,8.900696 C30.846436,4.9992676 27.687256,1.8365479 23.789917,1.8365479 C19.892578,1.8365479 16.733398,4.9992676 16.733398,8.900696 C16.733398,12.80249 19.892578,15.965027 23.789917,15.965027 C24.59082,15.965027 25.357666,15.825378 26.075317,15.578857 C24.487427,24.69629 17.385132,30.576538 23.968872,25.737122 C31.269165,20.37091 30.85437,9.11676 30.84607,8.910645 C30.84607,8.907227 30.846436,8.904419 30.846436,8.900696 ZM15.322144,8.900696 C15.322144,4.9992676 12.163086,1.8365479 8.265747,1.8365479 C4.368408,1.8365479 1.2092285,4.9992676 1.2092285,8.900696 C1.2092285,12.80249 4.368408,15.965027 8.265747,15.965027 C9.06665,15.965027 9.833374,15.825378 10.551147,15.578857 C8.963135,24.69629 1.8609619,30.576538 8.44458,25.737122 C15.744995,20.37091 15.330078,9.11676 15.321777,8.910645 C15.321777,8.907227 15.322144,8.904419 15.322144,8.900696 Z"/>
</svg>