<svg xmlns="http://www.w3.org/2000/svg"
 xmlns:xlink="http://www.w3.org/1999/xlink"
 width="36px" height="36px"  viewBox="0 0 36 36">
<path fill-rule="evenodd"  fill="#ffffff"
 d="M31.99762,13.420532 C31.481812,11.831421 32.18622,9.608276 31.22113,8.285767 C30.246887,6.9500732 27.901428,6.9364014 26.562561,5.963379 C25.237244,5.001465 24.503906,2.776123 22.911438,2.26062 C21.375671,1.7629395 19.477966,3.1169434 17.774658,3.1169434 C16.072021,3.1169434 14.173645,1.7629395 12.637878,2.26062 C11.04541,2.7756348 10.312073,5.001465 8.986023,5.963379 C7.647339,6.9364014 5.3031006,6.9500732 4.3289795,8.285767 C3.364624,9.608276 4.0681763,11.831421 3.5518188,13.420532 C3.0523071,14.952881 1.1553955,16.33191 1.1553955,18.030884 C1.1553955,19.729492 3.0531006,21.108398 3.5524902,22.64148 C4.0681763,24.229492 3.3638916,26.453735 4.329651,27.776611 C5.303894,29.111694 7.6486816,29.125732 8.987427,30.0979 C10.312866,31.060547 11.046204,33.285645 12.63855,33.802612 C14.175171,34.29944 16.072021,32.944824 17.77533,32.944824 C19.478699,32.944824 21.376343,34.29944 22.912231,33.802612 C24.504578,33.286377 25.237915,31.060547 26.563232,30.098633 C27.901978,29.126465 30.246887,29.111694 31.221802,27.776611 C32.18622,26.454102 31.481812,24.23059 31.998169,22.642212 C32.49768,21.10913 34.395386,19.729492 34.395386,18.030884 C34.393982,16.33191 32.49701,14.953247 31.99762,13.420532 ZM17.774658,29.663818 C11.344238,29.663818 6.112793,24.446167 6.112793,18.030884 C6.112793,11.616699 11.344238,6.3981934 17.774658,6.3981934 C24.205078,6.3981934 29.436523,11.616699 29.436523,18.030884 C29.436523,24.446167 24.205078,29.663818 17.774658,29.663818 ZM17.774658,8.297974 C12.394104,8.297974 8.016724,12.66394 8.016724,18.030884 C8.016724,23.398193 12.394104,27.764526 17.774658,27.764526 C23.155212,27.764526 27.532593,23.398193 27.532593,18.030884 C27.532593,12.66394 23.155212,8.297974 17.774658,8.297974 ZM24.272827,16.887085 C24.272827,16.887085 21.115662,19.502563 21.115662,19.502563 C21.115662,19.502563 22.128662,23.46936 22.128662,23.46936 C22.18805,23.702637 22.098999,23.947754 21.904846,24.089355 C21.709839,24.23059 21.448425,24.238525 21.244263,24.110596 C21.244263,24.110596 17.774658,21.923828 17.774658,21.923828 C17.774658,21.923828 14.305847,24.110596 14.305847,24.110596 C14.101685,24.238525 13.840271,24.23059 13.645264,24.089355 C13.450378,23.947754 13.361206,23.702637 13.421326,23.46936 C13.421326,23.46936 14.434448,19.502563 14.434448,19.502563 C14.434448,19.502563 11.277161,16.887085 11.277161,16.887085 C11.091431,16.733643 11.018616,16.482544 11.093506,16.254639 C11.167603,16.026245 11.374634,15.865601 11.61554,15.849731 C11.61554,15.849731 15.710388,15.584961 15.710388,15.584961 C15.710388,15.584961 17.228516,11.782593 17.228516,11.782593 C17.317566,11.558716 17.534424,11.412598 17.77533,11.412598 C18.016235,11.412598 18.233093,11.558716 18.322266,11.782593 C18.322266,11.782593 19.840454,15.584961 19.840454,15.584961 C19.840454,15.584961 23.93512,15.849731 23.93512,15.849731 C24.176147,15.865601 24.382324,16.026245 24.457336,16.254639 C24.53064,16.482544 24.458008,16.733643 24.272827,16.887085 Z"/>
</svg>