<svg xmlns="http://www.w3.org/2000/svg"
 xmlns:xlink="http://www.w3.org/1999/xlink"
 width="34px" height="34px"  viewBox="0 0 34 34">
<path fill-rule="evenodd"  fill="#ffffff"
 d="M28.23346,1.3179932 C28.23346,1.3179932 25.63153,3.8217773 22.817749,4.8310547 C1.980835,12.30603 10.768616,26.873047 11.055298,26.920776 C11.055298,26.920776 12.223755,24.902832 13.802124,23.751953 C23.817993,16.448853 25.853638,8.043457 25.853638,8.043457 C25.853638,8.043457 23.60614,18.158081 14.695679,24.451782 C12.727722,25.841309 11.395081,29.262451 10.830994,32.680786 C10.830994,32.680786 12.226013,32.122925 12.825928,31.97107 C13.059845,30.456543 13.54895,29.006714 14.375793,27.71228 C26.829346,29.182861 30.908081,19.229858 31.440979,15.759277 C32.69812,7.5632324 28.23346,1.3179932 28.23346,1.3179932 Z"/>
</svg>