<svg xmlns="http://www.w3.org/2000/svg"
 xmlns:xlink="http://www.w3.org/1999/xlink"
 width="35px" height="33px"  viewBox="0 0 35 33">
<path fill-rule="evenodd"  fill="#ffffff"
 d="M3.1954346,12.927826 C2.522461,13.187164 2.0449219,13.797058 1.949707,14.515137 C1.8552246,15.234985 2.1586914,15.947998 2.741333,16.37378 C2.741333,16.37378 9.119995,21.042847 9.119995,21.042847 C9.119995,21.042847 31.77539,3.111847 31.77539,3.111847 C31.77539,3.111847 11.743042,22.965881 11.743042,22.965881 C11.743042,22.965881 20.46289,29.348938 20.46289,29.348938 C21.018066,29.754211 21.733154,29.87738 22.392578,29.675232 C23.050781,29.4729 23.57544,28.970825 23.811157,28.322815 C23.811157,28.322815 33.139282,2.6386108 33.139282,2.6386108 C33.2334,2.377472 33.167725,2.0860596 32.971313,1.8917236 C32.77478,1.6960754 32.484863,1.6351624 32.22644,1.7348328 C32.22644,1.7348328 3.1954346,12.927826 3.1954346,12.927826 ZM7.605957,22.5943 C7.605957,22.5943 7.65979,22.892578 7.65979,22.892578 C7.65979,22.892578 8.897827,29.701416 8.897827,29.701416 C8.990112,30.207703 9.32605,30.631409 9.793823,30.83667 C10.261475,31.039673 10.800903,30.99646 11.229248,30.718567 C12.953613,29.60028 15.205444,28.1156 15.144531,28.028442 C15.144531,28.028442 7.605957,22.5943 7.605957,22.5943 Z"/>
</svg>