<svg xmlns="http://www.w3.org/2000/svg"
 xmlns:xlink="http://www.w3.org/1999/xlink"
 width="33px" height="35px"  viewBox="0 0 33 35">
<path fill-rule="evenodd"  fill="#ffffff"
 d="M31.00293,10.559998 C26.891907,12.0373535 23.759277,13.089508 21.00354,16.415924 C18.548706,19.380066 15.003906,20.40747 11.004181,18.453613 C11.004181,18.453613 11.004181,29.103516 11.004181,29.103516 C11.004181,29.103516 9.0043335,29.103516 9.0043335,29.103516 C9.0043335,29.103516 9.0043335,2.7522278 9.0043335,2.7522278 C9.0043335,2.2127075 9.451569,1.7763062 10.004211,1.7763062 C10.556946,1.7763062 11.004181,2.2127075 11.004181,2.7522278 C13.2247925,5.9031982 17.083862,6.600891 21.00354,6.656128 C27.003235,6.741974 31.00293,10.559998 31.00293,10.559998 ZM13.004028,23.506958 C13.004028,23.506958 13.004028,25.493164 13.004028,25.493164 C15.363342,25.964111 17.003845,26.963013 17.003845,28.127747 C17.003845,29.744202 13.869202,31.055542 10.004211,31.055542 C6.139282,31.055542 3.0046387,29.744019 3.0046387,28.127563 C3.0046387,26.96283 4.6451416,25.964111 7.0044556,25.493164 C7.0044556,25.493164 7.0044556,23.506958 7.0044556,23.506958 C3.3718872,24.120728 1.0047913,25.840149 1.0047913,28.127563 C1.0047913,31.000305 4.7056885,33.00757 10.004211,33.00757 C15.302795,33.00757 19.003723,31.000305 19.003723,28.127563 C19.003723,25.840149 16.636627,24.120728 13.004028,23.506958 Z"/>
</svg>