<svg xmlns="http://www.w3.org/2000/svg"
 xmlns:xlink="http://www.w3.org/1999/xlink"
 width="32px" height="34px"  viewBox="0 0 32 34">
<path fill-rule="evenodd"  fill="#ffffff"
 d="M24.765747,22.561401 C23.5625,22.561401 22.457031,22.965881 21.571167,23.638977 C21.571167,23.638977 12.431274,18.216553 12.431274,18.216553 C12.477173,17.93927 12.507324,17.656128 12.507324,17.366333 C12.507324,17.075745 12.477173,16.79358 12.431274,16.515686 C12.431274,16.515686 21.571167,11.093262 21.571167,11.093262 C22.457031,11.766998 23.5625,12.171326 24.765747,12.171326 C27.666992,12.171326 30.01941,9.844971 30.01941,6.9761353 C30.01941,4.107483 27.666992,1.7810974 24.765747,1.7810974 C21.864746,1.7810974 19.512085,4.107483 19.512085,6.9761353 C19.512085,7.266083 19.542236,7.5490417 19.588745,7.826477 C19.588745,7.826477 10.448853,13.248901 10.448853,13.248901 C9.56311,12.575806 8.457764,12.171326 7.25354,12.171326 C4.352539,12.171326 1.9998779,14.497528 1.9998779,17.366333 C1.9998779,20.234985 4.352539,22.561401 7.25354,22.561401 C8.457764,22.561401 9.56311,22.157227 10.448853,21.483154 C10.448853,21.483154 19.588745,26.905762 19.588745,26.905762 C19.542236,27.183472 19.512085,27.46582 19.512085,27.756409 C19.512085,30.625244 21.864746,32.951416 24.765747,32.951416 C27.666992,32.951416 30.01941,30.625244 30.01941,27.756409 C30.01941,24.887573 27.666992,22.561401 24.765747,22.561401 Z"/>
</svg>