<svg xmlns="http://www.w3.org/2000/svg"
 xmlns:xlink="http://www.w3.org/1999/xlink"
 width="23px" height="35px"  viewBox="0 0 23 35">
<path fill-rule="evenodd"  fill="#ffffff"
 d="M7.8016357,33.083008 C7.0734253,33.083008 5.888855,33.177673 5.1676636,33.078613 C3.841858,32.894714 1.989502,32.072388 1.989502,28.905762 C1.989502,28.905762 1.989502,5.9307556 1.989502,5.9307556 C1.989502,5.9307556 2.0543823,1.9133301 6.222473,1.9133301 C6.222473,1.9133301 16.449585,1.9133301 16.449585,1.9133301 C16.449585,1.9133301 21.033386,1.7709656 21.033386,5.9723206 C21.033386,5.9723206 21.033386,27.851013 21.033386,27.851013 C21.033386,28.520386 21.015564,29.61621 20.80487,30.258362 C20.415894,31.443298 19.365845,33.08252 16.532104,33.08252 C16.532104,33.08252 7.8016357,33.08252 7.8016357,33.08252 C7.8016357,33.08252 7.8016357,33.083008 7.8016357,33.083008 ZM11.441895,31.259216 C12.06604,31.259216 12.566467,30.79364 12.566467,30.226074 C12.566467,29.651062 12.06604,29.190369 11.441895,29.190369 C10.82605,29.190369 10.319885,29.651062 10.319885,30.226074 C10.319885,30.79364 10.826782,31.259216 11.441895,31.259216 ZM13.364014,3.861786 C13.364014,3.861786 9.65979,3.861786 9.65979,3.861786 C8.931519,3.861786 8.340515,4.2963867 8.340515,4.834442 C8.340515,5.371704 8.931519,5.806305 9.65979,5.806305 C9.65979,5.806305 13.364014,5.806305 13.364014,5.806305 C14.09198,5.806305 14.683289,5.371704 14.683289,4.834442 C14.683289,4.299011 14.092651,3.861786 13.364014,3.861786 ZM17.597656,7.7549133 C17.597656,7.7549133 5.425598,7.7549133 5.425598,7.7549133 C4.6973877,7.7549133 4.1063232,8.298828 4.1063232,8.969482 C4.1063232,8.969482 4.1063232,26.027832 4.1063232,26.027832 C4.1063232,26.69751 4.6973877,27.242432 5.425598,27.242432 C5.425598,27.242432 17.598694,27.242432 17.598694,27.242432 C18.327332,27.242432 18.918213,26.69751 18.918213,26.027832 C18.918213,26.027832 18.918213,8.969482 18.918213,8.969482 C18.916931,8.29834 18.32666,7.7549133 17.597656,7.7549133 Z"/>
</svg>