<svg xmlns="http://www.w3.org/2000/svg"
 xmlns:xlink="http://www.w3.org/1999/xlink"
 width="34px" height="34px"  viewBox="0 0 34 34">
<path fill-rule="evenodd"  fill="#ffffff"
 d="M28.64087,13.235596 C28.64087,13.235596 28.49353,13.182617 28.49353,13.182617 C28.49353,13.182617 27.920288,11.809326 27.920288,11.809326 C27.920288,11.809326 27.982422,11.668457 27.982422,11.668457 C29.719604,7.7160645 29.599854,7.5979004 29.311646,7.311157 C29.311646,7.311157 26.995361,5.0429688 26.995361,5.0429688 C26.900146,4.9486084 26.733765,4.8824463 26.590454,4.8824463 C26.460205,4.8824463 26.06604,4.8824463 22.644287,6.437866 C22.644287,6.437866 22.506958,6.4995117 22.506958,6.4995117 C22.506958,6.4995117 21.095947,5.929199 21.095947,5.929199 C21.095947,5.929199 21.03894,5.78833 21.03894,5.78833 C19.430664,1.7896729 19.265137,1.7896729 18.865234,1.7896729 C18.865234,1.7896729 15.593628,1.7896729 15.593628,1.7896729 C15.194946,1.7896729 15.013306,1.7896729 13.521362,5.795166 C13.521362,5.795166 13.465088,5.940918 13.465088,5.940918 C13.465088,5.940918 12.061035,6.515503 12.061035,6.515503 C12.061035,6.515503 11.92688,6.4593506 11.92688,6.4593506 C9.611084,5.479248 8.259033,4.982422 7.906494,4.982422 C7.76355,4.982422 7.5966797,5.047119 7.501465,5.1411133 C7.501465,5.1411133 5.1828613,7.4156494 5.1828613,7.4156494 C4.888672,7.706909 4.7667236,7.828491 6.5943604,11.699097 C6.5943604,11.699097 6.661377,11.842285 6.661377,11.842285 C6.661377,11.842285 6.0872803,13.214355 6.0872803,13.214355 C6.0872803,13.214355 5.9467773,13.269287 5.9467773,13.269287 C1.8699951,14.850098 1.8699951,15.004272 1.8699951,15.415894 C1.8699951,15.415894 1.8699951,18.633667 1.8699951,18.633667 C1.8699951,19.046753 1.8699951,19.217651 5.954956,20.687134 C5.954956,20.687134 6.100952,20.73938 6.100952,20.73938 C6.100952,20.73938 6.675293,22.1073 6.675293,22.1073 C6.675293,22.1073 6.6136475,22.246704 6.6136475,22.246704 C4.876953,26.201416 4.9873047,26.30774 5.282715,26.603516 C5.282715,26.603516 7.595581,28.874756 7.595581,28.874756 C7.692627,28.968384 7.8604736,29.0354 8.00354,29.0354 C8.133057,29.0354 8.526855,29.0354 11.950317,27.480713 C11.950317,27.480713 12.087036,27.41626 12.087036,27.41626 C12.087036,27.41626 13.499878,27.989746 13.499878,27.989746 C13.499878,27.989746 13.55481,28.131348 13.55481,28.131348 C15.164429,32.128418 15.329956,32.128418 15.730469,32.128418 C15.730469,32.128418 19.003052,32.128418 19.003052,32.128418 C19.41394,32.128418 19.583862,32.128418 21.076904,28.120361 C21.076904,28.120361 21.133179,27.97461 21.133179,27.97461 C21.133179,27.97461 22.53894,27.403809 22.53894,27.403809 C22.53894,27.403809 22.67334,27.45874 22.67334,27.45874 C24.987183,28.441162 26.33789,28.937256 26.688354,28.937256 C26.830444,28.937256 26.998901,28.874756 27.095581,28.778198 C27.095581,28.778198 29.417969,26.499023 29.417969,26.499023 C29.710083,26.206665 29.831299,26.086548 28.000488,22.220581 C28.000488,22.220581 27.932373,22.074707 27.932373,22.074707 C27.932373,22.074707 28.505493,20.709106 28.505493,20.709106 C28.505493,20.709106 28.642822,20.655273 28.642822,20.655273 C32.72632,19.065796 32.72632,18.910889 32.72632,18.498413 C32.72632,18.498413 32.72632,15.282959 32.72632,15.282959 C32.72632,14.869873 32.72632,14.699341 28.64087,13.235596 ZM17.297974,22.177002 C14.374512,22.177002 11.995972,19.835693 11.995972,16.959229 C11.995972,14.083984 14.374512,11.744995 17.297974,11.744995 C20.220093,11.744995 22.598633,14.083984 22.598633,16.959229 C22.598633,19.83496 20.220093,22.177002 17.297974,22.177002 Z"/>
</svg>