<svg xmlns="http://www.w3.org/2000/svg"
 xmlns:xlink="http://www.w3.org/1999/xlink"
 width="18px" height="18px"  viewBox="0 0 18 18">
<path fill-rule="evenodd"  fill="#e1e1e1"
 d="M10.0,2.015747 C10.0,2.015747 10.0,1.9991455 10.0,1.9991455 C10.0,1.9991455 9.499878,1.9991455 9.499878,1.9991455 C9.499878,1.9991455 8.999878,1.9991455 8.999878,1.9991455 C8.999878,1.9991455 8.999878,2.015747 8.999878,2.015747 C5.2558594,2.2615967 2.2630615,5.254883 2.0169678,8.998779 C2.0169678,8.998779 1.9998779,8.998779 1.9998779,8.998779 C1.9998779,8.998779 1.9998779,9.499023 1.9998779,9.499023 C1.9998779,9.499023 1.9998779,9.999023 1.9998779,9.999023 C1.9998779,9.999023 2.0169678,9.999023 2.0169678,9.999023 C2.2630615,13.74292 5.2558594,16.73523 8.999878,16.981201 C8.999878,16.981201 8.999878,16.998413 8.999878,16.998413 C8.999878,16.998413 9.499878,16.998413 9.499878,16.998413 C9.499878,16.998413 10.0,16.998413 10.0,16.998413 C10.0,16.998413 10.0,16.981201 10.0,16.981201 C13.744019,16.73523 16.736206,13.74292 16.9823,9.999023 C16.9823,9.999023 16.999878,9.999023 16.999878,9.999023 C16.999878,9.999023 16.999878,9.499023 16.999878,9.499023 C16.999878,9.499023 16.999878,8.998779 16.999878,8.998779 C16.999878,8.998779 16.9823,8.998779 16.9823,8.998779 C16.736206,5.254883 13.744019,2.2615967 10.0,2.015747 ZM6.694702,3.633545 C6.211792,4.2750244 5.810913,5.0810547 5.518921,5.9989014 C5.518921,5.9989014 4.020874,5.9989014 4.020874,5.9989014 C4.6728516,4.9816895 5.598999,4.1586914 6.694702,3.633545 ZM3.4979248,6.9992676 C3.4979248,6.9992676 5.2558594,6.9992676 5.2558594,6.9992676 C5.1220703,7.6309814 5.0369873,8.302368 5.0097656,8.998779 C5.0097656,8.998779 3.018921,8.998779 3.018921,8.998779 C3.0716553,8.2948 3.237793,7.6219482 3.4979248,6.9992676 ZM3.018921,9.999023 C3.018921,9.999023 5.0097656,9.999023 5.0097656,9.999023 C5.0369873,10.695923 5.1220703,11.3671875 5.2558594,11.999023 C5.2558594,11.999023 3.4979248,11.999023 3.4979248,11.999023 C3.237793,11.376099 3.0716553,10.702515 3.018921,9.999023 ZM4.020874,12.998413 C4.020874,12.998413 5.5179443,12.998413 5.5179443,12.998413 C5.8100586,13.917114 6.2108154,14.721802 6.694702,15.36377 C5.598999,14.838867 4.6728516,14.016113 4.020874,12.998413 ZM8.999878,15.93457 C7.972046,15.659546 7.086914,14.555176 6.5496826,12.998413 C6.5496826,12.998413 8.999878,12.998413 8.999878,12.998413 C8.999878,12.998413 8.999878,15.93457 8.999878,15.93457 ZM8.999878,11.999023 C8.999878,11.999023 6.268921,11.999023 6.268921,11.999023 C6.1278076,11.376099 6.0390625,10.702515 6.0097656,9.999023 C6.0097656,9.999023 8.999878,9.999023 8.999878,9.999023 C8.999878,9.999023 8.999878,11.999023 8.999878,11.999023 ZM8.999878,8.998779 C8.999878,8.998779 6.0097656,8.998779 6.0097656,8.998779 C6.0390625,8.2948 6.1278076,7.6219482 6.268921,6.9992676 C6.268921,6.9992676 8.999878,6.9992676 8.999878,6.9992676 C8.999878,6.9992676 8.999878,8.998779 8.999878,8.998779 ZM8.999878,5.9989014 C8.999878,5.9989014 6.5496826,5.9989014 6.5496826,5.9989014 C7.086914,4.4421387 7.972046,3.3377686 8.999878,3.064087 C8.999878,3.064087 8.999878,5.9989014 8.999878,5.9989014 ZM14.978394,5.9989014 C14.978394,5.9989014 13.4823,5.9989014 13.4823,5.9989014 C13.189453,5.0810547 12.78894,4.2750244 12.304565,3.633545 C13.400391,4.1586914 14.326904,4.9816895 14.978394,5.9989014 ZM10.0,3.064087 C11.027222,3.3377686 11.912964,4.4421387 12.450195,5.9989014 C12.450195,5.9989014 10.0,5.9989014 10.0,5.9989014 C10.0,5.9989014 10.0,3.064087 10.0,3.064087 ZM10.0,6.9992676 C10.0,6.9992676 12.730347,6.9992676 12.730347,6.9992676 C12.871948,7.6219482 12.959839,8.2948 12.990112,8.998779 C12.990112,8.998779 10.0,8.998779 10.0,8.998779 C10.0,8.998779 10.0,6.9992676 10.0,6.9992676 ZM10.0,9.999023 C10.0,9.999023 12.990112,9.999023 12.990112,9.999023 C12.960815,10.702515 12.871948,11.376099 12.730347,11.999023 C12.730347,11.999023 10.0,11.999023 10.0,11.999023 C10.0,11.999023 10.0,9.999023 10.0,9.999023 ZM10.0,15.93457 C10.0,15.93457 10.0,12.998413 10.0,12.998413 C10.0,12.998413 12.450195,12.998413 12.450195,12.998413 C11.912964,14.555176 11.027222,15.659546 10.0,15.93457 ZM12.304565,15.36377 C12.787964,14.721802 13.189453,13.917114 13.4823,12.998413 C13.4823,12.998413 14.978394,12.998413 14.978394,12.998413 C14.326904,14.016113 13.400391,14.838867 12.304565,15.36377 ZM15.501953,11.999023 C15.501953,11.999023 13.744019,11.999023 13.744019,11.999023 C13.877808,11.3671875 13.962769,10.695923 13.98999,9.999023 C13.98999,9.999023 15.980469,9.999023 15.980469,9.999023 C15.927612,10.702515 15.761597,11.376099 15.501953,11.999023 ZM13.98999,8.998779 C13.962769,8.302368 13.877808,7.6309814 13.744019,6.9992676 C13.744019,6.9992676 15.501953,6.9992676 15.501953,6.9992676 C15.761597,7.6219482 15.927612,8.2948 15.980469,8.998779 C15.980469,8.998779 13.98999,8.998779 13.98999,8.998779 Z"/>
</svg>