<svg xmlns="http://www.w3.org/2000/svg"
 xmlns:xlink="http://www.w3.org/1999/xlink"
 width="23px" height="35px"  viewBox="0 0 23 35">
<path fill-rule="evenodd"  fill="#ffffff"
 d="M19.250366,1.9041748 C19.250366,1.9041748 3.756958,1.9041748 3.756958,1.9041748 C2.248413,1.9041748 1.0227051,3.0548096 1.0227051,4.470825 C1.0227051,4.470825 1.0227051,31.419312 1.0227051,31.419312 C1.0227051,32.835693 2.248413,33.98584 3.756958,33.98584 C3.756958,33.98584 19.250366,33.98584 19.250366,33.98584 C20.758911,33.98584 21.984375,32.835693 21.984375,31.419312 C21.984375,31.419312 21.984375,4.470825 21.984375,4.470825 C21.984375,3.0548096 20.758911,1.9041748 19.250366,1.9041748 ZM8.997681,4.248535 C8.997681,3.8970947 9.297974,3.6149902 9.672363,3.6149902 C9.672363,3.6149902 13.335693,3.6149902 13.335693,3.6149902 C13.709106,3.6149902 14.009888,3.8970947 14.009888,4.248535 C14.009888,4.248535 14.009888,4.265991 14.009888,4.265991 C14.009888,4.615967 13.709106,4.8984375 13.335693,4.8984375 C13.335693,4.8984375 9.672363,4.8984375 9.672363,4.8984375 C9.297974,4.8984375 8.997681,4.615967 8.997681,4.265991 C8.997681,4.265991 8.997681,4.248535 8.997681,4.248535 ZM11.50354,33.02356 C10.688232,33.02356 10.022461,32.399048 10.022461,31.633667 C10.022461,30.868164 10.687866,30.243286 11.50354,30.243286 C12.319214,30.243286 12.984985,30.868164 12.984985,31.633667 C12.984985,32.399048 12.319214,33.02356 11.50354,33.02356 ZM19.705688,28.853027 C19.705688,29.087769 19.501099,29.280151 19.250366,29.280151 C19.250366,29.280151 3.756958,29.280151 3.756958,29.280151 C3.5064697,29.280151 3.3013916,29.087769 3.3013916,28.853027 C3.3013916,28.853027 3.3013916,7.0374756 3.3013916,7.0374756 C3.3013916,6.80188 3.5064697,6.609497 3.756958,6.609497 C3.756958,6.609497 19.250366,6.609497 19.250366,6.609497 C19.501099,6.609497 19.705688,6.80188 19.705688,7.0374756 C19.705688,7.0374756 19.705688,28.853027 19.705688,28.853027 ZM17.431885,16.020142 C17.431885,16.020142 5.5751953,16.020142 5.5751953,16.020142 C5.32605,16.020142 5.1241455,16.209595 5.1241455,16.443604 C5.1241455,16.443604 5.1241455,16.451904 5.1241455,16.451904 C5.1241455,16.686401 5.3256836,16.875366 5.5751953,16.875366 C5.5751953,16.875366 17.431885,16.875366 17.431885,16.875366 C17.681274,16.875366 17.883057,16.686401 17.883057,16.451904 C17.883057,16.451904 17.883057,16.443604 17.883057,16.443604 C17.883057,16.209595 17.681519,16.020142 17.431885,16.020142 ZM17.427979,9.176147 C17.427979,9.176147 16.061035,9.176147 16.061035,9.176147 C15.809326,9.176147 15.605347,9.36853 15.605347,9.604126 C15.605347,9.604126 15.605347,10.887329 15.605347,10.887329 C15.605347,11.123169 15.809326,11.314453 16.061035,11.314453 C16.061035,11.314453 17.427979,11.314453 17.427979,11.314453 C17.679077,11.314453 17.883057,11.122803 17.883057,10.887329 C17.883057,10.887329 17.883057,9.604126 17.883057,9.604126 C17.883057,9.368164 17.679077,9.176147 17.427979,9.176147 ZM12.415283,11.314819 C12.415283,11.314819 13.782227,11.314819 13.782227,11.314819 C14.033447,11.314819 14.237305,11.123169 14.237305,10.887329 C14.237305,10.887329 14.237305,9.604126 14.237305,9.604126 C14.237305,9.36853 14.033447,9.176514 13.782227,9.176514 C13.782227,9.176514 12.415283,9.176514 12.415283,9.176514 C12.163818,9.176514 11.959595,9.36853 11.959595,9.604126 C11.959595,9.604126 11.959595,10.887329 11.959595,10.887329 C11.958984,11.123169 12.163818,11.314819 12.415283,11.314819 ZM17.431885,18.586792 C17.431885,18.586792 5.5751953,18.586792 5.5751953,18.586792 C5.32605,18.586792 5.1241455,18.776611 5.1241455,19.01062 C5.1241455,19.01062 5.1241455,19.01892 5.1241455,19.01892 C5.1241455,19.252563 5.3256836,19.442383 5.5751953,19.442383 C5.5751953,19.442383 17.431885,19.442383 17.431885,19.442383 C17.681274,19.442383 17.883057,19.252563 17.883057,19.01892 C17.883057,19.01892 17.883057,19.01062 17.883057,19.01062 C17.883057,18.776611 17.681519,18.586792 17.431885,18.586792 ZM5.5751953,14.309448 C5.5751953,14.309448 13.331177,14.309448 13.331177,14.309448 C13.579834,14.309448 13.782227,14.119751 13.782227,13.885254 C13.782227,13.885254 13.782227,13.877686 13.782227,13.877686 C13.782227,13.643311 13.5802,13.453857 13.331177,13.453857 C13.331177,13.453857 5.5751953,13.453857 5.5751953,13.453857 C5.32605,13.453857 5.1241455,13.643311 5.1241455,13.877686 C5.1241455,13.877686 5.1241455,13.885254 5.1241455,13.885254 C5.1243896,14.119751 5.32605,14.309448 5.5751953,14.309448 ZM17.431885,21.153442 C17.431885,21.153442 5.5751953,21.153442 5.5751953,21.153442 C5.32605,21.153442 5.1241455,21.342407 5.1241455,21.57727 C5.1241455,21.57727 5.1241455,21.584839 5.1241455,21.584839 C5.1241455,21.818848 5.3256836,22.0083 5.5751953,22.0083 C5.5751953,22.0083 17.431885,22.0083 17.431885,22.0083 C17.681274,22.0083 17.883057,21.818848 17.883057,21.584839 C17.883057,21.584839 17.883057,21.57727 17.883057,21.57727 C17.883057,21.342407 17.681519,21.153442 17.431885,21.153442 ZM5.579834,11.314819 C5.579834,11.314819 6.9467773,11.314819 6.9467773,11.314819 C7.197754,11.314819 7.4022217,11.123169 7.4022217,10.887329 C7.4022217,10.887329 7.4022217,9.604126 7.4022217,9.604126 C7.4022217,9.36853 7.197754,9.176514 6.9467773,9.176514 C6.9467773,9.176514 5.579834,9.176514 5.579834,9.176514 C5.328125,9.176514 5.1243896,9.36853 5.1243896,9.604126 C5.1243896,9.604126 5.1243896,10.887329 5.1243896,10.887329 C5.1243896,11.123169 5.328125,11.314819 5.579834,11.314819 ZM9.225464,11.314819 C9.225464,11.314819 10.592407,11.314819 10.592407,11.314819 C10.84375,11.314819 11.047852,11.123169 11.047852,10.887329 C11.047852,10.887329 11.047852,9.604126 11.047852,9.604126 C11.047852,9.36853 10.84375,9.176514 10.592407,9.176514 C10.592407,9.176514 9.225464,9.176514 9.225464,9.176514 C8.973999,9.176514 8.769897,9.36853 8.769897,9.604126 C8.769897,9.604126 8.769897,10.887329 8.769897,10.887329 C8.769653,11.123169 8.973999,11.314819 9.225464,11.314819 ZM17.431885,26.286377 C17.431885,26.286377 5.5751953,26.286377 5.5751953,26.286377 C5.32605,26.286377 5.1241455,26.475708 5.1241455,26.709717 C5.1241455,26.709717 5.1241455,26.718506 5.1241455,26.718506 C5.1241455,26.952148 5.3256836,27.141846 5.5751953,27.141846 C5.5751953,27.141846 17.431885,27.141846 17.431885,27.141846 C17.681274,27.141846 17.883057,26.952148 17.883057,26.718506 C17.883057,26.718506 17.883057,26.709717 17.883057,26.709717 C17.883057,26.475708 17.681519,26.286377 17.431885,26.286377 ZM17.431885,23.719727 C17.431885,23.719727 5.5751953,23.719727 5.5751953,23.719727 C5.32605,23.719727 5.1241455,23.909424 5.1241455,24.14392 C5.1241455,24.14392 5.1241455,24.151855 5.1241455,24.151855 C5.1241455,24.385864 5.3256836,24.575684 5.5751953,24.575684 C5.5751953,24.575684 17.431885,24.575684 17.431885,24.575684 C17.681274,24.575684 17.883057,24.385864 17.883057,24.151855 C17.883057,24.151855 17.883057,24.14392 17.883057,24.14392 C17.883057,23.909424 17.681519,23.719727 17.431885,23.719727 Z"/>
</svg>