<svg xmlns="http://www.w3.org/2000/svg"
 xmlns:xlink="http://www.w3.org/1999/xlink"
 width="23px" height="23px"  viewBox="0 0 23 23">
<path fill-rule="evenodd"  fill="#c7b299"
 d="M11.499695,1.0 C5.70166,1.0 1.0013428,5.7004395 1.0013428,11.499268 C1.0013428,17.297363 5.70166,21.997314 11.499695,21.997314 C17.298523,21.997314 21.998169,17.297363 21.998169,11.499268 C21.998169,5.7004395 17.298523,1.0 11.499695,1.0 ZM14.788696,11.996826 C14.788696,11.996826 10.249512,16.534912 10.249512,16.534912 C9.976929,16.808594 9.533386,16.808594 9.259949,16.534912 C8.987366,16.261475 8.987366,15.8186035 9.259949,15.545166 C9.259949,15.545166 13.306824,11.499268 13.306824,11.499268 C13.306824,11.499268 9.259949,7.4519043 9.259949,7.4519043 C8.987366,7.179199 8.987366,6.7355957 9.259949,6.462158 C9.533386,6.1896973 9.976929,6.1896973 10.249512,6.462158 C10.249512,6.462158 14.788696,11.002441 14.788696,11.002441 C14.926758,11.139404 14.995178,11.320068 14.993774,11.499268 C14.993774,11.679443 14.926758,11.858887 14.788696,11.996826 Z"/>
</svg>