<svg xmlns="http://www.w3.org/2000/svg"
 xmlns:xlink="http://www.w3.org/1999/xlink"
 width="7px" height="12px"  viewBox="0 0 7 12">
<path fill-rule="evenodd"  fill="#d1d1d1"
 d="M1.951416,9.814941 C1.951416,9.814941 5.7855225,6.3476562 5.7855225,6.3476562 C5.9988403,6.1552734 5.9988403,5.8413086 5.7855225,5.6484375 C5.7855225,5.6484375 5.7649536,5.6367188 5.7649536,5.6367188 C5.7649536,5.6367188 1.951416,2.1777344 1.951416,2.1777344 C1.7370605,1.9848633 1.3882446,1.9848633 1.1740112,2.1777344 C1.1740112,2.1777344 1.1700134,2.1845703 1.1700134,2.1845703 C1.06781,2.2734375 1.0027161,2.3984375 1.0027161,2.5375977 C1.0027161,2.5375977 1.0027161,9.455078 1.0027161,9.455078 C1.0027161,9.59668 1.0708008,9.723633 1.1759644,9.813965 C1.1759644,9.813965 1.1740112,9.814941 1.1740112,9.814941 C1.38974,10.008301 1.7370605,10.008301 1.951416,9.814941 Z"/>
</svg>