<svg xmlns="http://www.w3.org/2000/svg"
 xmlns:xlink="http://www.w3.org/1999/xlink"
 width="28px" height="28px"  viewBox="0 0 28 28">
<path fill-rule="evenodd"  fill="#c7b299"
 d="M24.499023,3.4936523 C22.096008,1.088623 18.158936,1.088623 15.755554,3.4936523 C15.755554,3.4936523 11.034485,8.217285 11.034485,8.217285 C12.6536255,7.7564697 14.409119,7.877075 15.943237,8.593262 C15.943237,8.593262 18.397278,6.137085 18.397278,6.137085 C19.351929,5.182007 20.902832,5.182007 21.8573,6.137085 C22.811646,7.0913086 22.811646,8.643555 21.8573,9.598877 C21.8573,9.598877 18.7724,12.686157 18.7724,12.686157 C18.7724,12.686157 16.744202,14.714722 16.744202,14.714722 C15.789734,15.670288 14.2387085,15.670288 13.284302,14.714722 C13.284302,14.714722 10.642517,17.358643 10.642517,17.358643 C11.2560425,17.972534 11.971863,18.432617 12.721924,18.723389 C14.750183,19.524048 17.10205,19.217285 18.874634,17.81897 C19.045044,17.682617 19.232483,17.529053 19.385925,17.358643 C19.385925,17.358643 22.572998,14.169678 22.572998,14.169678 C22.572998,14.169678 24.499023,12.241943 24.499023,12.241943 C26.919128,9.83667 26.919128,5.9144287 24.499023,3.4936523 ZM11.937805,19.524048 C11.937805,19.524048 9.585815,21.878296 9.585815,21.878296 C8.631348,22.833374 7.0803223,22.833374 6.1259155,21.878296 C5.1713257,20.922363 5.1713257,19.37146 6.1259155,18.41565 C6.1259155,18.41565 11.239136,13.300659 11.239136,13.300659 C12.19342,12.345093 13.744568,12.345093 14.698914,13.300659 C14.698914,13.300659 17.340637,10.65625 17.340637,10.65625 C16.727112,10.042236 16.01117,9.581909 15.261475,9.292725 C13.130859,8.439087 10.625366,8.830811 8.835754,10.434448 C8.75061,10.503052 8.665344,10.588501 8.597229,10.65625 C8.597229,10.65625 3.4841309,15.773804 3.4841309,15.773804 C1.0808716,18.177612 1.0808716,22.116821 3.4841309,24.521362 C5.887268,26.927246 9.824524,26.927246 12.227539,24.521362 C12.227539,24.521362 16.846375,19.848877 16.846375,19.848877 C14.494507,20.39441 13.948975,20.326538 11.937805,19.524048 Z"/>
</svg>