<svg xmlns="http://www.w3.org/2000/svg"
 xmlns:xlink="http://www.w3.org/1999/xlink"
 width="66px" height="59px"  viewBox="0 0 66 59">
<path fill-rule="evenodd"  fill="#ffffff"
 d="M38.107788,12.713123 C38.107788,12.713123 27.60028,12.713123 27.60028,12.713123 C27.60028,12.713123 32.854034,21.904476 32.854034,21.904476 C32.854034,21.904476 38.107788,12.713123 38.107788,12.713123 ZM26.286285,13.479668 C26.286285,13.479668 21.03241,22.67102 21.03241,22.67102 C21.03241,22.67102 31.54004,22.67102 31.54004,22.67102 C31.54004,22.67102 26.286285,13.479668 26.286285,13.479668 ZM44.67566,22.67102 C44.67566,22.67102 39.42169,13.479668 39.42169,13.479668 C39.42169,13.479668 34.16806,22.67102 34.16806,22.67102 C34.16806,22.67102 44.67566,22.67102 44.67566,22.67102 ZM34.16806,24.20145 C34.16806,24.20145 39.42169,33.389343 39.42169,33.389343 C39.42169,33.389343 44.67566,24.20145 44.67566,24.20145 C44.67566,24.20145 34.16806,24.20145 34.16806,24.20145 ZM21.03241,24.20145 C21.03241,24.20145 26.286285,33.389343 26.286285,33.389343 C26.286285,33.389343 31.54004,24.20145 31.54004,24.20145 C31.54004,24.20145 21.03241,24.20145 21.03241,24.20145 ZM14.464661,34.153755 C14.464661,34.153755 24.971344,34.153755 24.971344,34.153755 C24.971344,34.153755 19.718384,24.966663 19.718384,24.966663 C19.718384,24.966663 14.464661,34.153755 14.464661,34.153755 ZM51.243317,34.153755 C51.243317,34.153755 45.989685,24.966663 45.989685,24.966663 C45.989685,24.966663 40.73764,34.153755 40.73764,34.153755 C40.73764,34.153755 51.243317,34.153755 51.243317,34.153755 ZM32.854034,1.993473 C32.854034,1.993473 27.60028,11.184029 27.60028,11.184029 C27.60028,11.184029 38.107788,11.184029 38.107788,11.184029 C38.107788,11.184029 32.854034,1.993473 32.854034,1.993473 ZM45.989685,44.87394 C45.989685,44.87394 51.243317,35.686043 51.243317,35.686043 C51.243317,35.686043 40.73764,35.686043 40.73764,35.686043 C40.73764,35.686043 45.989685,44.87394 45.989685,44.87394 ZM19.718384,44.87394 C19.718384,44.87394 24.971344,35.686043 24.971344,35.686043 C24.971344,35.686043 14.464661,35.686043 14.464661,35.686043 C14.464661,35.686043 19.718384,44.87394 19.718384,44.87394 ZM7.897003,45.64128 C7.897003,45.64128 18.403687,45.64128 18.403687,45.64128 C18.403687,45.64128 13.150757,36.45073 13.150757,36.45073 C13.150757,36.45073 7.897003,45.64128 7.897003,45.64128 ZM57.811096,45.64128 C57.811096,45.64128 52.557343,36.45073 52.557343,36.45073 C52.557343,36.45073 47.303345,45.64128 47.303345,45.64128 C47.303345,45.64128 57.811096,45.64128 57.811096,45.64128 ZM47.303345,47.171707 C47.303345,47.171707 52.557343,56.358803 52.557343,56.358803 C52.557343,56.358803 57.811096,47.171707 57.811096,47.171707 C57.811096,47.171707 47.303345,47.171707 47.303345,47.171707 ZM34.16806,47.171707 C34.16806,47.171707 39.42169,56.358803 39.42169,56.358803 C39.42169,56.358803 44.67566,47.171707 44.67566,47.171707 C44.67566,47.171707 34.16806,47.171707 34.16806,47.171707 ZM13.150757,56.358803 C13.150757,56.358803 18.403687,47.171707 18.403687,47.171707 C18.403687,47.171707 7.897003,47.171707 7.897003,47.171707 C7.897003,47.171707 13.150757,56.358803 13.150757,56.358803 ZM1.3310547,57.12748 C1.3310547,57.12748 11.835815,57.12748 11.835815,57.12748 C11.835815,57.12748 6.582062,47.939056 6.582062,47.939056 C6.582062,47.939056 1.3310547,57.12748 1.3310547,57.12748 ZM27.60028,57.12748 C27.60028,57.12748 38.107788,57.12748 38.107788,57.12748 C38.107788,57.12748 32.854034,47.939056 32.854034,47.939056 C32.854034,47.939056 27.60028,57.12748 27.60028,57.12748 ZM40.73764,57.12748 C40.73764,57.12748 51.243317,57.12748 51.243317,57.12748 C51.243317,57.12748 45.989685,47.939056 45.989685,47.939056 C45.989685,47.939056 40.73764,57.12748 40.73764,57.12748 ZM59.12509,47.939056 C59.12509,47.939056 53.873047,57.12748 53.873047,57.12748 C53.873047,57.12748 64.377014,57.12748 64.377014,57.12748 C64.377014,57.12748 59.12509,47.939056 59.12509,47.939056 Z"/>
</svg>