<svg xmlns="http://www.w3.org/2000/svg"
 xmlns:xlink="http://www.w3.org/1999/xlink"
 width="29px" height="27px"  viewBox="0 0 29 27">
<path fill-rule="evenodd"  fill="#ffffff"
 d="M12.304077,5.081421 C11.577759,5.081421 10.988464,5.6625977 10.988464,6.376709 C10.988464,7.0942383 11.577759,7.673828 12.304077,7.673828 C13.911377,7.673828 15.346741,8.558594 16.051697,9.982788 C16.279541,10.44397 16.747131,10.71106 17.234436,10.71106 C17.428528,10.71106 17.624695,10.668457 17.810303,10.580566 C18.463623,10.266602 18.734985,9.4904785 18.416504,8.847046 C17.26764,6.5247803 14.924683,5.081421 12.304077,5.081421 ZM26.456055,22.881226 C26.456055,22.881226 22.07251,18.56311 22.07251,18.56311 C23.370056,16.764038 24.140625,14.572266 24.140625,12.202026 C24.140625,6.1280518 19.124878,1.1853027 12.958801,1.1853027 C6.7927246,1.1853027 1.7769775,6.1280518 1.7769775,12.202026 C1.7769775,18.275635 6.7927246,23.218018 12.958801,23.218018 C15.534729,23.218018 17.9021,22.347656 19.794556,20.900879 C19.794556,20.900879 24.129944,25.171509 24.129944,25.171509 C24.451172,25.488403 24.87268,25.645508 25.29303,25.645508 C25.714172,25.645508 26.134949,25.488892 26.456055,25.171509 C27.098328,24.54004 27.098328,23.513916 26.456055,22.881226 ZM4.4086914,12.202026 C4.4086914,7.557007 8.244873,3.777832 12.959595,3.777832 C17.674133,3.777832 21.510193,7.557007 21.510193,12.202026 C21.510193,14.134277 20.840027,15.91333 19.724182,17.33545 C19.355347,17.80542 18.941101,18.23938 18.481262,18.623535 C16.990234,19.870483 15.064148,20.626831 12.959595,20.626831 C8.244507,20.625854 4.4086914,16.846802 4.4086914,12.202026 Z"/>
</svg>