<svg xmlns="http://www.w3.org/2000/svg"
 xmlns:xlink="http://www.w3.org/1999/xlink"
 width="18px" height="18px"  viewBox="0 0 18 18">
<path fill-rule="evenodd"  fill="#ffffff"
 d="M14.966675,8.202393 C14.966675,8.202393 12.39624,10.771606 12.39624,10.771606 C10.977539,12.191162 8.676025,12.191162 7.257324,10.771606 C7.0336914,10.549194 6.8588867,10.297974 6.7054443,10.03894 C6.7054443,10.03894 7.899658,8.845093 7.899658,8.845093 C7.956421,8.7873535 8.026611,8.754395 8.093506,8.715942 C8.176025,8.998291 8.32019,9.265625 8.541992,9.487183 C9.250488,10.196167 10.403564,10.195435 11.111572,9.487183 C11.111572,9.487183 13.68103,6.9176025 13.68103,6.9176025 C14.389893,6.2091064 14.389893,5.0561523 13.68103,4.3479004 C12.9729,3.6391602 11.820435,3.6391602 11.111572,4.3479004 C11.111572,4.3479004 10.197632,5.262207 10.197632,5.262207 C9.456421,4.973877 8.657349,4.89563 7.8796387,5.0095215 C7.8796387,5.0095215 9.826782,3.0627441 9.826782,3.0627441 C11.246338,1.6434326 13.546997,1.6434326 14.966675,3.0627441 C16.385376,4.4821777 16.385376,6.782959 14.966675,8.202393 ZM8.171631,12.427368 C8.171631,12.427368 7.257324,13.341919 7.257324,13.341919 C6.548828,14.049805 5.395752,14.049805 4.687378,13.341919 C3.9788818,12.633423 3.9788818,11.480957 4.687378,10.771606 C4.687378,10.771606 7.257324,8.202393 7.257324,8.202393 C7.9663086,7.493164 9.118408,7.493164 9.826782,8.202393 C10.048218,8.423584 10.192383,8.69043 10.275635,8.972046 C10.343262,8.933716 10.412476,8.901611 10.469238,8.845093 C10.469238,8.845093 11.663452,7.6505127 11.663452,7.6505127 C11.510864,7.3914795 11.335205,7.1411133 11.111572,6.9176025 C9.692871,5.498169 7.3913574,5.498169 5.972168,6.9176025 C5.972168,6.9176025 3.40271,9.487183 3.40271,9.487183 C1.9835205,10.906494 1.9835205,13.207031 3.40271,14.626709 C4.8217773,16.045532 7.122925,16.045532 8.541992,14.626709 C8.541992,14.626709 10.489624,12.679443 10.489624,12.679443 C9.711548,12.793579 8.912476,12.715454 8.171631,12.427368 Z"/>
</svg>