<svg xmlns="http://www.w3.org/2000/svg"
 xmlns:xlink="http://www.w3.org/1999/xlink"
 width="18px" height="18px"  viewBox="0 0 18 18">
<path fill-rule="evenodd"  fill="#ffffff"
 d="M14.966675,8.202881 C14.966675,8.202881 12.396362,10.772217 12.396362,10.772217 C10.977539,12.19165 8.676025,12.19165 7.257324,10.772217 C7.0336914,10.549316 6.859009,10.29834 6.7055664,10.039307 C6.7055664,10.039307 7.899658,8.845215 7.899658,8.845215 C7.956421,8.788086 8.026611,8.755127 8.093628,8.716309 C8.176025,8.998535 8.3203125,9.265869 8.542114,9.487549 C9.25061,10.196533 10.403564,10.195801 11.111572,9.487549 C11.111572,9.487549 13.68103,6.918213 13.68103,6.918213 C14.389893,6.2092285 14.389893,5.0563965 13.68103,4.3481445 C12.973022,3.6396484 11.820435,3.6396484 11.111572,4.3481445 C11.111572,4.3481445 10.197632,5.2626953 10.197632,5.2626953 C9.456421,4.974121 8.657471,4.89624 7.8796387,5.010254 C7.8796387,5.010254 9.826782,3.0632324 9.826782,3.0632324 C11.24646,1.644043 13.546997,1.644043 14.966675,3.0632324 C16.385376,4.482666 16.385376,6.7834473 14.966675,8.202881 ZM8.171631,12.4279785 C8.171631,12.4279785 7.257324,13.342529 7.257324,13.342529 C6.548828,14.050293 5.395874,14.050293 4.6875,13.342529 C3.979004,12.633545 3.979004,11.481201 4.6875,10.772217 C4.6875,10.772217 7.257324,8.202881 7.257324,8.202881 C7.9663086,7.4938965 9.118408,7.4938965 9.826782,8.202881 C10.048218,8.424072 10.192383,8.690918 10.275757,8.9729 C10.343262,8.933838 10.412476,8.901855 10.469238,8.845215 C10.469238,8.845215 11.663452,7.651123 11.663452,7.651123 C11.510864,7.3916016 11.335205,7.1413574 11.111572,6.918213 C9.692871,5.4987793 7.3913574,5.4987793 5.972168,6.918213 C5.972168,6.918213 3.40271,9.487549 3.40271,9.487549 C1.9835205,10.906982 1.9835205,13.207764 3.40271,14.627197 C4.8217773,16.045898 7.123047,16.045898 8.542114,14.627197 C8.542114,14.627197 10.489624,12.6796875 10.489624,12.6796875 C9.711548,12.794189 8.912476,12.716064 8.171631,12.4279785 Z"/>
</svg>