<svg xmlns="http://www.w3.org/2000/svg"
 xmlns:xlink="http://www.w3.org/1999/xlink"
 width="17px" height="17px"  viewBox="0 0 17 17">
<path fill-rule="evenodd"  fill="#ffffff"
 d="M14.977051,13.501343 C14.977051,13.501343 12.182617,10.706909 12.182617,10.706909 C12.856079,9.734497 13.192993,8.650879 13.192993,7.456543 C13.192993,6.679199 13.042114,5.9368896 12.740723,5.227539 C12.439209,4.519043 12.03186,3.9082031 11.518555,3.394287 C11.005371,2.8811035 10.394409,2.4743652 9.685547,2.1721191 C8.976685,1.8712158 8.233765,1.720581 7.4570312,1.720581 C6.68042,1.720581 5.9375,1.8712158 5.22876,2.1721191 C4.5198975,2.4743652 3.9088135,2.8811035 3.39563,3.394287 C2.8822021,3.9082031 2.4748535,4.519043 2.173462,5.227539 C1.8720703,5.9368896 1.7213135,6.679199 1.7213135,7.456543 C1.7213135,8.232544 1.8720703,8.975708 2.173462,9.684326 C2.4748535,10.393311 2.8822021,11.00415 3.39563,11.517334 C3.9088135,12.030518 4.5200195,12.438477 5.22876,12.739502 C5.937622,13.04126 6.68042,13.192261 7.4570312,13.192261 C8.652222,13.192261 9.73584,12.855347 10.708008,12.181763 C10.708008,12.181763 13.502441,14.967773 13.502441,14.967773 C13.697876,15.173828 13.942139,15.277222 14.235596,15.277222 C14.517944,15.277222 14.762695,15.173828 14.96875,14.967773 C15.175171,14.761719 15.278442,14.516724 15.278442,14.234497 C15.278564,13.9470215 15.178223,13.702393 14.977051,13.501343 ZM10.035767,10.034668 C9.321411,10.7491455 8.462036,11.105957 7.4570312,11.105957 C6.4522705,11.105957 5.5927734,10.7491455 4.87854,10.034668 C4.1641846,9.320435 3.8070068,8.461182 3.8070068,7.456543 C3.8070068,6.451416 4.1643066,5.591797 4.87854,4.8775635 C5.5926514,4.163208 6.4522705,3.8062744 7.4570312,3.8062744 C8.461914,3.8062744 9.321289,4.163208 10.035767,4.8775635 C10.75,5.591797 11.1073,6.451416 11.1073,7.456543 C11.1073,8.461182 10.75,9.320435 10.035767,10.034668 Z"/>
</svg>