<svg xmlns="http://www.w3.org/2000/svg"
 xmlns:xlink="http://www.w3.org/1999/xlink"
 width="17px" height="17px"  viewBox="0 0 17 17">
<path fill-rule="evenodd"  fill="#ffffff"
 d="M14.977051,13.501709 C14.977051,13.501709 12.182617,10.707275 12.182617,10.707275 C12.856079,9.735107 13.192993,8.651611 13.192993,7.456787 C13.192993,6.6796875 13.042236,5.937256 12.740723,5.2282715 C12.439331,4.519287 12.03186,3.9084473 11.518677,3.3947754 C11.005371,2.8815918 10.394531,2.4746094 9.685669,2.1728516 C8.976685,1.871582 8.233887,1.7209473 7.4571533,1.7209473 C6.68042,1.7209473 5.937622,1.871582 5.228882,2.1728516 C4.5198975,2.4746094 3.9089355,2.8815918 3.39563,3.3947754 C2.8822021,3.9084473 2.4749756,4.519287 2.173462,5.2282715 C1.8720703,5.937256 1.7213135,6.6796875 1.7213135,7.456787 C1.7213135,8.233154 1.8720703,8.976318 2.173462,9.684814 C2.4749756,10.393799 2.8822021,11.004639 3.39563,11.517822 C3.9089355,12.031006 4.5200195,12.438965 5.228882,12.73999 C5.937744,13.041748 6.68042,13.192627 7.4571533,13.192627 C8.652222,13.192627 9.73584,12.855469 10.708008,12.182129 C10.708008,12.182129 13.502441,14.968018 13.502441,14.968018 C13.697998,15.174561 13.942139,15.277832 14.235718,15.277832 C14.518066,15.277832 14.762695,15.174561 14.96875,14.968018 C15.175293,14.761963 15.278442,14.517334 15.278442,14.234863 C15.278564,13.947266 15.178223,13.702637 14.977051,13.501709 ZM10.035889,10.035156 C9.321533,10.749512 8.462036,11.106201 7.4571533,11.106201 C6.4523926,11.106201 5.5927734,10.749512 4.87854,10.035156 C4.1641846,9.320801 3.8070068,8.461426 3.8070068,7.456787 C3.8070068,6.45166 4.1643066,5.592285 4.87854,4.8779297 C5.5926514,4.1638184 6.4523926,3.8066406 7.4571533,3.8066406 C8.461914,3.8066406 9.321411,4.1638184 10.035889,4.8779297 C10.75,5.592285 11.1073,6.45166 11.1073,7.456787 C11.1073,8.461426 10.75,9.320801 10.035889,10.035156 Z"/>
</svg>